<svg width="1458" height="1360" viewBox="0 0 1458 1360" fill="none" xmlns="http://www.w3.org/2000/svg">
<rect x="2" y="668" width="713" height="690" stroke="#999999" stroke-width="4" stroke-linecap="round" stroke-linejoin="round" stroke-dasharray="12 12"/>
<path d="M22.792 724L32.008 698.8H37.516L46.696 724H41.548L34.744 704.344L27.904 724H22.792ZM26.86 718.276L28.156 714.496H40.972L42.232 718.276H26.86ZM49.1794 724V705.856H53.4634L53.8234 708.808C54.3754 707.8 55.1554 706.984 56.1634 706.36C57.1954 705.736 58.4194 705.424 59.8354 705.424C61.3474 705.424 62.6194 705.736 63.6514 706.36C64.6834 706.984 65.4634 707.896 65.9914 709.096C66.5434 710.296 66.8194 711.772 66.8194 713.524V724H61.9954V713.992C61.9954 712.552 61.6834 711.448 61.0594 710.68C60.4594 709.912 59.5234 709.528 58.2514 709.528C57.4354 709.528 56.7034 709.72 56.0554 710.104C55.4314 710.488 54.9394 711.04 54.5794 711.76C54.2194 712.456 54.0394 713.308 54.0394 714.316V724H49.1794ZM78.4902 732.352C76.7622 732.352 75.2502 732.136 73.9542 731.704C72.6582 731.296 71.6502 730.66 70.9302 729.796C70.2342 728.956 69.8862 727.912 69.8862 726.664C69.8862 725.824 70.1022 725.032 70.5342 724.288C70.9662 723.544 71.5902 722.872 72.4062 722.272C73.2462 721.648 74.2902 721.12 75.5382 720.688L77.3742 723.064C76.2702 723.424 75.4662 723.868 74.9622 724.396C74.4822 724.948 74.2422 725.536 74.2422 726.16C74.2422 726.712 74.4222 727.18 74.7822 727.564C75.1662 727.948 75.6702 728.224 76.2942 728.392C76.9422 728.584 77.6622 728.68 78.4542 728.68C79.2222 728.68 79.8822 728.584 80.4342 728.392C81.0102 728.2 81.4542 727.912 81.7662 727.528C82.1022 727.168 82.2702 726.736 82.2702 726.232C82.2702 725.584 82.0422 725.056 81.5862 724.648C81.1302 724.24 80.2182 723.988 78.8502 723.892C77.6262 723.796 76.5342 723.664 75.5742 723.496C74.6382 723.304 73.8102 723.088 73.0902 722.848C72.3702 722.584 71.7582 722.296 71.2542 721.984C70.7742 721.672 70.3782 721.36 70.0662 721.048V720.22L73.9182 716.08L77.4102 717.196L72.8742 721.66L74.2422 719.284C74.5062 719.428 74.7582 719.572 74.9982 719.716C75.2622 719.836 75.5862 719.956 75.9702 720.076C76.3542 720.172 76.8582 720.268 77.4822 720.364C78.1062 720.46 78.8982 720.544 79.8582 720.616C81.4422 720.76 82.7382 721.06 83.7462 721.516C84.7782 721.972 85.5342 722.584 86.0142 723.352C86.4942 724.096 86.7342 725.02 86.7342 726.124C86.7342 727.204 86.4342 728.212 85.8342 729.148C85.2582 730.108 84.3582 730.876 83.1342 731.452C81.9102 732.052 80.3622 732.352 78.4902 732.352ZM78.4902 718.636C76.9782 718.636 75.6702 718.348 74.5662 717.772C73.4862 717.172 72.6462 716.38 72.0462 715.396C71.4702 714.388 71.1822 713.272 71.1822 712.048C71.1822 710.824 71.4702 709.72 72.0462 708.736C72.6462 707.728 73.4862 706.924 74.5662 706.324C75.6702 705.724 76.9782 705.424 78.4902 705.424C80.0262 705.424 81.3342 705.724 82.4142 706.324C83.5182 706.924 84.3582 707.728 84.9342 708.736C85.5102 709.72 85.7982 710.824 85.7982 712.048C85.7982 713.272 85.5102 714.388 84.9342 715.396C84.3582 716.38 83.5182 717.172 82.4142 717.772C81.3342 718.348 80.0262 718.636 78.4902 718.636ZM78.4902 714.928C79.4262 714.928 80.1822 714.688 80.7582 714.208C81.3342 713.728 81.6222 713.02 81.6222 712.084C81.6222 711.148 81.3342 710.44 80.7582 709.96C80.1822 709.456 79.4262 709.204 78.4902 709.204C77.5782 709.204 76.8222 709.456 76.2222 709.96C75.6462 710.44 75.3582 711.148 75.3582 712.084C75.3582 713.02 75.6462 713.728 76.2222 714.208C76.8222 714.688 77.5782 714.928 78.4902 714.928ZM81.5142 709.312L80.7222 705.856H88.1742V708.736L81.5142 709.312ZM99.2155 732.352C97.4875 732.352 95.9755 732.136 94.6795 731.704C93.3835 731.296 92.3755 730.66 91.6555 729.796C90.9595 728.956 90.6115 727.912 90.6115 726.664C90.6115 725.824 90.8275 725.032 91.2595 724.288C91.6915 723.544 92.3155 722.872 93.1315 722.272C93.9715 721.648 95.0155 721.12 96.2635 720.688L98.0995 723.064C96.9955 723.424 96.1915 723.868 95.6875 724.396C95.2075 724.948 94.9675 725.536 94.9675 726.16C94.9675 726.712 95.1475 727.18 95.5075 727.564C95.8915 727.948 96.3955 728.224 97.0195 728.392C97.6675 728.584 98.3875 728.68 99.1795 728.68C99.9475 728.68 100.607 728.584 101.159 728.392C101.735 728.2 102.179 727.912 102.491 727.528C102.827 727.168 102.995 726.736 102.995 726.232C102.995 725.584 102.767 725.056 102.311 724.648C101.855 724.24 100.943 723.988 99.5755 723.892C98.3515 723.796 97.2595 723.664 96.2995 723.496C95.3635 723.304 94.5355 723.088 93.8155 722.848C93.0955 722.584 92.4835 722.296 91.9795 721.984C91.4995 721.672 91.1035 721.36 90.7915 721.048V720.22L94.6435 716.08L98.1355 717.196L93.5995 721.66L94.9675 719.284C95.2315 719.428 95.4835 719.572 95.7235 719.716C95.9875 719.836 96.3115 719.956 96.6955 720.076C97.0795 720.172 97.5835 720.268 98.2075 720.364C98.8315 720.46 99.6235 720.544 100.583 720.616C102.167 720.76 103.463 721.06 104.471 721.516C105.503 721.972 106.259 722.584 106.739 723.352C107.219 724.096 107.459 725.02 107.459 726.124C107.459 727.204 107.159 728.212 106.559 729.148C105.983 730.108 105.083 730.876 103.859 731.452C102.635 732.052 101.087 732.352 99.2155 732.352ZM99.2155 718.636C97.7035 718.636 96.3955 718.348 95.2915 717.772C94.2115 717.172 93.3715 716.38 92.7715 715.396C92.1955 714.388 91.9075 713.272 91.9075 712.048C91.9075 710.824 92.1955 709.72 92.7715 708.736C93.3715 707.728 94.2115 706.924 95.2915 706.324C96.3955 705.724 97.7035 705.424 99.2155 705.424C100.751 705.424 102.059 705.724 103.139 706.324C104.243 706.924 105.083 707.728 105.659 708.736C106.235 709.72 106.523 710.824 106.523 712.048C106.523 713.272 106.235 714.388 105.659 715.396C105.083 716.38 104.243 717.172 103.139 717.772C102.059 718.348 100.751 718.636 99.2155 718.636ZM99.2155 714.928C100.151 714.928 100.907 714.688 101.483 714.208C102.059 713.728 102.347 713.02 102.347 712.084C102.347 711.148 102.059 710.44 101.483 709.96C100.907 709.456 100.151 709.204 99.2155 709.204C98.3035 709.204 97.5475 709.456 96.9475 709.96C96.3715 710.44 96.0835 711.148 96.0835 712.084C96.0835 713.02 96.3715 713.728 96.9475 714.208C97.5475 714.688 98.3035 714.928 99.2155 714.928ZM102.239 709.312L101.447 705.856H108.899V708.736L102.239 709.312ZM119.994 724.432C118.266 724.432 116.706 724.036 115.314 723.244C113.946 722.428 112.854 721.312 112.038 719.896C111.246 718.456 110.85 716.812 110.85 714.964C110.85 713.068 111.246 711.412 112.038 709.996C112.854 708.556 113.958 707.44 115.35 706.648C116.742 705.832 118.302 705.424 120.03 705.424C121.782 705.424 123.342 705.832 124.71 706.648C126.102 707.44 127.194 708.556 127.986 709.996C128.802 711.412 129.21 713.056 129.21 714.928C129.21 716.8 128.802 718.456 127.986 719.896C127.194 721.312 126.102 722.428 124.71 723.244C123.318 724.036 121.746 724.432 119.994 724.432ZM119.994 720.22C120.81 720.22 121.53 720.028 122.154 719.644C122.802 719.26 123.306 718.672 123.666 717.88C124.05 717.088 124.242 716.104 124.242 714.928C124.242 713.752 124.05 712.78 123.666 712.012C123.306 711.22 122.802 710.632 122.154 710.248C121.53 709.84 120.822 709.636 120.03 709.636C119.262 709.636 118.554 709.84 117.906 710.248C117.258 710.632 116.742 711.22 116.358 712.012C115.998 712.78 115.818 713.752 115.818 714.928C115.818 716.104 115.998 717.088 116.358 717.88C116.742 718.672 117.246 719.26 117.87 719.644C118.518 720.028 119.226 720.22 119.994 720.22ZM140.147 724C138.875 724 137.759 723.808 136.799 723.424C135.863 723.016 135.131 722.356 134.603 721.444C134.075 720.508 133.811 719.236 133.811 717.628V709.924H130.715V705.856H133.811L134.351 700.924H138.671V705.856H143.459V709.924H138.671V717.7C138.671 718.516 138.851 719.08 139.211 719.392C139.571 719.704 140.183 719.86 141.047 719.86H143.423V724H140.147ZM152.949 724.432C151.437 724.432 150.189 724.192 149.205 723.712C148.221 723.208 147.489 722.548 147.009 721.732C146.553 720.892 146.325 719.968 146.325 718.96C146.325 717.856 146.601 716.884 147.153 716.044C147.729 715.204 148.581 714.544 149.709 714.064C150.861 713.584 152.301 713.344 154.029 713.344H158.529C158.529 712.456 158.409 711.724 158.169 711.148C157.929 710.548 157.557 710.104 157.053 709.816C156.549 709.528 155.877 709.384 155.037 709.384C154.125 709.384 153.345 709.588 152.697 709.996C152.073 710.38 151.689 710.98 151.545 711.796H146.829C146.949 710.5 147.369 709.384 148.089 708.448C148.833 707.488 149.805 706.744 151.005 706.216C152.229 705.688 153.585 705.424 155.073 705.424C156.777 705.424 158.253 705.712 159.501 706.288C160.749 706.864 161.709 707.692 162.381 708.772C163.053 709.852 163.389 711.184 163.389 712.768V724H159.285L158.745 721.228C158.481 721.708 158.169 722.14 157.809 722.524C157.449 722.908 157.029 723.244 156.549 723.532C156.069 723.82 155.529 724.036 154.929 724.18C154.329 724.348 153.669 724.432 152.949 724.432ZM154.101 720.688C154.725 720.688 155.277 720.58 155.757 720.364C156.261 720.124 156.693 719.812 157.053 719.428C157.413 719.02 157.689 718.564 157.881 718.06C158.097 717.532 158.241 716.968 158.313 716.368V716.332H154.605C153.861 716.332 153.249 716.428 152.769 716.62C152.313 716.788 151.977 717.04 151.761 717.376C151.545 717.712 151.437 718.096 151.437 718.528C151.437 719.008 151.545 719.404 151.761 719.716C151.977 720.028 152.289 720.268 152.697 720.436C153.105 720.604 153.573 720.688 154.101 720.688Z" fill="black"/>
<g filter="url(#filter0_d_266_152)">
<rect x="22" y="755" width="673" height="181" rx="10" fill="white"/>
<path d="M52.88 828.5L63.12 800.5H69.24L79.44 828.5H73.72L66.16 806.66L58.56 828.5H52.88ZM57.4 822.14L58.84 817.94H73.08L74.48 822.14H57.4ZM82.1994 828.5V808.34H86.9594L87.3594 811.62C87.9727 810.5 88.8394 809.593 89.9594 808.9C91.106 808.207 92.466 807.86 94.0394 807.86C95.7194 807.86 97.1327 808.207 98.2794 808.9C99.426 809.593 100.293 810.607 100.879 811.94C101.493 813.273 101.799 814.913 101.799 816.86V828.5H96.4394V817.38C96.4394 815.78 96.0927 814.553 95.3994 813.7C94.7327 812.847 93.6927 812.42 92.2794 812.42C91.3727 812.42 90.5594 812.633 89.8394 813.06C89.146 813.487 88.5994 814.1 88.1994 814.9C87.7994 815.673 87.5994 816.62 87.5994 817.74V828.5H82.1994ZM114.767 837.78C112.847 837.78 111.167 837.54 109.727 837.06C108.287 836.607 107.167 835.9 106.367 834.94C105.594 834.007 105.207 832.847 105.207 831.46C105.207 830.527 105.447 829.647 105.927 828.82C106.407 827.993 107.1 827.247 108.007 826.58C108.94 825.887 110.1 825.3 111.487 824.82L113.527 827.46C112.3 827.86 111.407 828.353 110.847 828.94C110.314 829.553 110.047 830.207 110.047 830.9C110.047 831.513 110.247 832.033 110.647 832.46C111.074 832.887 111.634 833.193 112.327 833.38C113.047 833.593 113.847 833.7 114.727 833.7C115.58 833.7 116.314 833.593 116.927 833.38C117.567 833.167 118.06 832.847 118.407 832.42C118.78 832.02 118.967 831.54 118.967 830.98C118.967 830.26 118.714 829.673 118.207 829.22C117.7 828.767 116.687 828.487 115.167 828.38C113.807 828.273 112.594 828.127 111.527 827.94C110.487 827.727 109.567 827.487 108.767 827.22C107.967 826.927 107.287 826.607 106.727 826.26C106.194 825.913 105.754 825.567 105.407 825.22V824.3L109.687 819.7L113.567 820.94L108.527 825.9L110.047 823.26C110.34 823.42 110.62 823.58 110.887 823.74C111.18 823.873 111.54 824.007 111.967 824.14C112.394 824.247 112.954 824.353 113.647 824.46C114.34 824.567 115.22 824.66 116.287 824.74C118.047 824.9 119.487 825.233 120.607 825.74C121.754 826.247 122.594 826.927 123.127 827.78C123.66 828.607 123.927 829.633 123.927 830.86C123.927 832.06 123.594 833.18 122.927 834.22C122.287 835.287 121.287 836.14 119.927 836.78C118.567 837.447 116.847 837.78 114.767 837.78ZM114.767 822.54C113.087 822.54 111.634 822.22 110.407 821.58C109.207 820.913 108.274 820.033 107.607 818.94C106.967 817.82 106.647 816.58 106.647 815.22C106.647 813.86 106.967 812.633 107.607 811.54C108.274 810.42 109.207 809.527 110.407 808.86C111.634 808.193 113.087 807.86 114.767 807.86C116.474 807.86 117.927 808.193 119.127 808.86C120.354 809.527 121.287 810.42 121.927 811.54C122.567 812.633 122.887 813.86 122.887 815.22C122.887 816.58 122.567 817.82 121.927 818.94C121.287 820.033 120.354 820.913 119.127 821.58C117.927 822.22 116.474 822.54 114.767 822.54ZM114.767 818.42C115.807 818.42 116.647 818.153 117.287 817.62C117.927 817.087 118.247 816.3 118.247 815.26C118.247 814.22 117.927 813.433 117.287 812.9C116.647 812.34 115.807 812.06 114.767 812.06C113.754 812.06 112.914 812.34 112.247 812.9C111.607 813.433 111.287 814.22 111.287 815.26C111.287 816.3 111.607 817.087 112.247 817.62C112.914 818.153 113.754 818.42 114.767 818.42ZM118.127 812.18L117.247 808.34H125.527V811.54L118.127 812.18ZM137.795 837.78C135.875 837.78 134.195 837.54 132.755 837.06C131.315 836.607 130.195 835.9 129.395 834.94C128.622 834.007 128.235 832.847 128.235 831.46C128.235 830.527 128.475 829.647 128.955 828.82C129.435 827.993 130.128 827.247 131.035 826.58C131.968 825.887 133.128 825.3 134.515 824.82L136.555 827.46C135.328 827.86 134.435 828.353 133.875 828.94C133.342 829.553 133.075 830.207 133.075 830.9C133.075 831.513 133.275 832.033 133.675 832.46C134.102 832.887 134.662 833.193 135.355 833.38C136.075 833.593 136.875 833.7 137.755 833.7C138.608 833.7 139.342 833.593 139.955 833.38C140.595 833.167 141.088 832.847 141.435 832.42C141.808 832.02 141.995 831.54 141.995 830.98C141.995 830.26 141.742 829.673 141.235 829.22C140.728 828.767 139.715 828.487 138.195 828.38C136.835 828.273 135.622 828.127 134.555 827.94C133.515 827.727 132.595 827.487 131.795 827.22C130.995 826.927 130.315 826.607 129.755 826.26C129.222 825.913 128.782 825.567 128.435 825.22V824.3L132.715 819.7L136.595 820.94L131.555 825.9L133.075 823.26C133.368 823.42 133.648 823.58 133.915 823.74C134.208 823.873 134.568 824.007 134.995 824.14C135.422 824.247 135.982 824.353 136.675 824.46C137.368 824.567 138.248 824.66 139.315 824.74C141.075 824.9 142.515 825.233 143.635 825.74C144.782 826.247 145.622 826.927 146.155 827.78C146.688 828.607 146.955 829.633 146.955 830.86C146.955 832.06 146.622 833.18 145.955 834.22C145.315 835.287 144.315 836.14 142.955 836.78C141.595 837.447 139.875 837.78 137.795 837.78ZM137.795 822.54C136.115 822.54 134.662 822.22 133.435 821.58C132.235 820.913 131.302 820.033 130.635 818.94C129.995 817.82 129.675 816.58 129.675 815.22C129.675 813.86 129.995 812.633 130.635 811.54C131.302 810.42 132.235 809.527 133.435 808.86C134.662 808.193 136.115 807.86 137.795 807.86C139.502 807.86 140.955 808.193 142.155 808.86C143.382 809.527 144.315 810.42 144.955 811.54C145.595 812.633 145.915 813.86 145.915 815.22C145.915 816.58 145.595 817.82 144.955 818.94C144.315 820.033 143.382 820.913 142.155 821.58C140.955 822.22 139.502 822.54 137.795 822.54ZM137.795 818.42C138.835 818.42 139.675 818.153 140.315 817.62C140.955 817.087 141.275 816.3 141.275 815.26C141.275 814.22 140.955 813.433 140.315 812.9C139.675 812.34 138.835 812.06 137.795 812.06C136.782 812.06 135.942 812.34 135.275 812.9C134.635 813.433 134.315 814.22 134.315 815.26C134.315 816.3 134.635 817.087 135.275 817.62C135.942 818.153 136.782 818.42 137.795 818.42ZM141.155 812.18L140.275 808.34H148.555V811.54L141.155 812.18ZM160.882 828.98C158.962 828.98 157.229 828.54 155.682 827.66C154.162 826.753 152.949 825.513 152.042 823.94C151.162 822.34 150.722 820.513 150.722 818.46C150.722 816.353 151.162 814.513 152.042 812.94C152.949 811.34 154.175 810.1 155.722 809.22C157.269 808.313 159.002 807.86 160.922 807.86C162.869 807.86 164.602 808.313 166.122 809.22C167.669 810.1 168.882 811.34 169.762 812.94C170.669 814.513 171.122 816.34 171.122 818.42C171.122 820.5 170.669 822.34 169.762 823.94C168.882 825.513 167.669 826.753 166.122 827.66C164.575 828.54 162.829 828.98 160.882 828.98ZM160.882 824.3C161.789 824.3 162.589 824.087 163.282 823.66C164.002 823.233 164.562 822.58 164.962 821.7C165.389 820.82 165.602 819.727 165.602 818.42C165.602 817.113 165.389 816.033 164.962 815.18C164.562 814.3 164.002 813.647 163.282 813.22C162.589 812.767 161.802 812.54 160.922 812.54C160.069 812.54 159.282 812.767 158.562 813.22C157.842 813.647 157.269 814.3 156.842 815.18C156.442 816.033 156.242 817.113 156.242 818.42C156.242 819.727 156.442 820.82 156.842 821.7C157.269 822.58 157.829 823.233 158.522 823.66C159.242 824.087 160.029 824.3 160.882 824.3ZM183.275 828.5C181.861 828.5 180.621 828.287 179.555 827.86C178.515 827.407 177.701 826.673 177.115 825.66C176.528 824.62 176.235 823.207 176.235 821.42V812.86H172.795V808.34H176.235L176.835 802.86H181.635V808.34H186.955V812.86H181.635V821.5C181.635 822.407 181.835 823.033 182.235 823.38C182.635 823.727 183.315 823.9 184.275 823.9H186.915V828.5H183.275ZM197.499 828.98C195.819 828.98 194.433 828.713 193.339 828.18C192.246 827.62 191.433 826.887 190.899 825.98C190.393 825.047 190.139 824.02 190.139 822.9C190.139 821.673 190.446 820.593 191.059 819.66C191.699 818.727 192.646 817.993 193.899 817.46C195.179 816.927 196.779 816.66 198.699 816.66H203.699C203.699 815.673 203.566 814.86 203.299 814.22C203.033 813.553 202.619 813.06 202.059 812.74C201.499 812.42 200.753 812.26 199.819 812.26C198.806 812.26 197.939 812.487 197.219 812.94C196.526 813.367 196.099 814.033 195.939 814.94H190.699C190.833 813.5 191.299 812.26 192.099 811.22C192.926 810.153 194.006 809.327 195.339 808.74C196.699 808.153 198.206 807.86 199.859 807.86C201.753 807.86 203.393 808.18 204.779 808.82C206.166 809.46 207.233 810.38 207.979 811.58C208.726 812.78 209.099 814.26 209.099 816.02V828.5H204.539L203.939 825.42C203.646 825.953 203.299 826.433 202.899 826.86C202.499 827.287 202.033 827.66 201.499 827.98C200.966 828.3 200.366 828.54 199.699 828.7C199.033 828.887 198.299 828.98 197.499 828.98ZM198.779 824.82C199.473 824.82 200.086 824.7 200.619 824.46C201.179 824.193 201.659 823.847 202.059 823.42C202.459 822.967 202.766 822.46 202.979 821.9C203.219 821.313 203.379 820.687 203.459 820.02V819.98H199.339C198.513 819.98 197.833 820.087 197.299 820.3C196.793 820.487 196.419 820.767 196.179 821.14C195.939 821.513 195.819 821.94 195.819 822.42C195.819 822.953 195.939 823.393 196.179 823.74C196.419 824.087 196.766 824.353 197.219 824.54C197.673 824.727 198.193 824.82 198.779 824.82Z" fill="#BC4F07"/>
<line x1="52" y1="849" x2="665" y2="849" stroke="#B9B9B9" stroke-width="3"/>
<path d="M54.4 892.5V870.1H61.632C63.3813 870.1 64.8107 870.399 65.92 870.996C67.0293 871.572 67.8507 872.351 68.384 873.332C68.9173 874.313 69.184 875.423 69.184 876.66C69.184 877.855 68.9067 878.953 68.352 879.956C67.8187 880.959 66.9867 881.759 65.856 882.356C64.7253 882.953 63.2747 883.252 61.504 883.252H57.088V892.5H54.4ZM66.24 892.5L61.312 882.484H64.32L69.408 892.5H66.24ZM57.088 881.14H61.44C63.1467 881.14 64.3947 880.724 65.184 879.892C65.9947 879.06 66.4 877.993 66.4 876.692C66.4 875.369 66.0053 874.324 65.216 873.556C64.448 872.767 63.1787 872.372 61.408 872.372H57.088V881.14ZM78.8313 892.884C77.3379 892.884 75.9939 892.543 74.7993 891.86C73.6046 891.156 72.6659 890.175 71.9833 888.916C71.3006 887.636 70.9593 886.153 70.9593 884.468C70.9593 882.74 71.3006 881.247 71.9833 879.988C72.6873 878.708 73.6366 877.727 74.8313 877.044C76.0473 876.34 77.4019 875.988 78.8953 875.988C80.4313 875.988 81.7859 876.34 82.9593 877.044C84.1539 877.727 85.0926 878.708 85.7753 879.988C86.4793 881.247 86.8313 882.729 86.8313 884.436C86.8313 886.143 86.4793 887.636 85.7753 888.916C85.0713 890.175 84.1219 891.156 82.9273 891.86C81.7326 892.543 80.3673 892.884 78.8313 892.884ZM78.8633 890.58C79.7806 890.58 80.6339 890.356 81.4233 889.908C82.2126 889.439 82.8526 888.745 83.3433 887.828C83.8339 886.911 84.0793 885.78 84.0793 884.436C84.0793 883.071 83.8339 881.94 83.3433 881.044C82.8739 880.127 82.2446 879.444 81.4553 878.996C80.6873 878.527 79.8339 878.292 78.8953 878.292C77.9993 878.292 77.1459 878.527 76.3353 878.996C75.5459 879.444 74.9059 880.127 74.4153 881.044C73.9459 881.94 73.7113 883.071 73.7113 884.436C73.7113 885.78 73.9459 886.911 74.4153 887.828C74.9059 888.745 75.5353 889.439 76.3033 889.908C77.0926 890.356 77.9459 890.58 78.8633 890.58ZM96.04 892.884C94.696 892.884 93.5227 892.66 92.52 892.212C91.5387 891.764 90.7493 891.145 90.152 890.356C89.576 889.545 89.224 888.596 89.096 887.508H91.848C91.9547 888.063 92.1787 888.575 92.52 889.044C92.8613 889.513 93.32 889.897 93.896 890.196C94.4933 890.473 95.2187 890.612 96.072 890.612C96.8187 890.612 97.4373 890.505 97.928 890.292C98.4187 890.057 98.7813 889.748 99.016 889.364C99.272 888.98 99.4 888.564 99.4 888.116C99.4 887.455 99.24 886.953 98.92 886.612C98.6213 886.271 98.1733 886.004 97.576 885.812C96.9787 885.599 96.2533 885.417 95.4 885.268C94.696 885.14 94.0027 884.969 93.32 884.756C92.6373 884.543 92.0293 884.265 91.496 883.924C90.9627 883.561 90.536 883.124 90.216 882.612C89.9173 882.1 89.768 881.471 89.768 880.724C89.768 879.807 90.0027 878.996 90.472 878.292C90.9413 877.567 91.6133 877.001 92.488 876.596C93.384 876.191 94.4187 875.988 95.592 875.988C97.32 875.988 98.7173 876.404 99.784 877.236C100.851 878.068 101.48 879.273 101.672 880.852H99.016C98.9093 880.041 98.5573 879.412 97.96 878.964C97.384 878.495 96.584 878.26 95.56 878.26C94.5573 878.26 93.7893 878.463 93.256 878.868C92.744 879.273 92.488 879.807 92.488 880.468C92.488 880.895 92.6267 881.279 92.904 881.62C93.2027 881.94 93.6293 882.217 94.184 882.452C94.76 882.687 95.464 882.879 96.296 883.028C97.3627 883.22 98.3333 883.476 99.208 883.796C100.083 884.116 100.787 884.596 101.32 885.236C101.875 885.855 102.152 886.74 102.152 887.892C102.152 888.895 101.896 889.769 101.384 890.516C100.893 891.263 100.189 891.849 99.272 892.276C98.3547 892.681 97.2773 892.884 96.04 892.884ZM105.639 892.5V876.372H108.327V892.5H105.639ZM106.983 872.948C106.449 872.948 106.001 872.777 105.639 872.436C105.297 872.073 105.127 871.625 105.127 871.092C105.127 870.559 105.297 870.132 105.639 869.812C106.001 869.471 106.449 869.3 106.983 869.3C107.495 869.3 107.932 869.471 108.295 869.812C108.657 870.132 108.839 870.559 108.839 871.092C108.839 871.625 108.657 872.073 108.295 872.436C107.932 872.777 107.495 872.948 106.983 872.948ZM120.45 892.5V870.1H123.138V892.5H120.45ZM133.23 892.884C131.886 892.884 130.713 892.66 129.71 892.212C128.729 891.764 127.939 891.145 127.342 890.356C126.766 889.545 126.414 888.596 126.286 887.508H129.038C129.145 888.063 129.369 888.575 129.71 889.044C130.051 889.513 130.51 889.897 131.086 890.196C131.683 890.473 132.409 890.612 133.262 890.612C134.009 890.612 134.627 890.505 135.118 890.292C135.609 890.057 135.971 889.748 136.206 889.364C136.462 888.98 136.59 888.564 136.59 888.116C136.59 887.455 136.43 886.953 136.11 886.612C135.811 886.271 135.363 886.004 134.766 885.812C134.169 885.599 133.443 885.417 132.59 885.268C131.886 885.14 131.193 884.969 130.51 884.756C129.827 884.543 129.219 884.265 128.686 883.924C128.153 883.561 127.726 883.124 127.406 882.612C127.107 882.1 126.958 881.471 126.958 880.724C126.958 879.807 127.193 878.996 127.662 878.292C128.131 877.567 128.803 877.001 129.678 876.596C130.574 876.191 131.609 875.988 132.782 875.988C134.51 875.988 135.907 876.404 136.974 877.236C138.041 878.068 138.67 879.273 138.862 880.852H136.206C136.099 880.041 135.747 879.412 135.15 878.964C134.574 878.495 133.774 878.26 132.75 878.26C131.747 878.26 130.979 878.463 130.446 878.868C129.934 879.273 129.678 879.807 129.678 880.468C129.678 880.895 129.817 881.279 130.094 881.62C130.393 881.94 130.819 882.217 131.374 882.452C131.95 882.687 132.654 882.879 133.486 883.028C134.553 883.22 135.523 883.476 136.398 883.796C137.273 884.116 137.977 884.596 138.51 885.236C139.065 885.855 139.342 886.74 139.342 887.892C139.342 888.895 139.086 889.769 138.574 890.516C138.083 891.263 137.379 891.849 136.462 892.276C135.545 892.681 134.467 892.884 133.23 892.884ZM145.243 892.5L140.507 876.372H143.195L146.875 889.972H146.395L150.395 876.372H153.435L157.499 889.94L156.987 889.972L160.635 876.372H163.355L158.651 892.5H155.899L151.675 878.292H152.219L147.995 892.5H145.243ZM170.43 892.884C169.129 892.884 168.041 892.66 167.166 892.212C166.292 891.743 165.641 891.135 165.214 890.388C164.788 889.62 164.574 888.788 164.574 887.892C164.574 886.804 164.852 885.887 165.406 885.14C165.982 884.372 166.782 883.796 167.806 883.412C168.852 883.007 170.078 882.804 171.486 882.804H175.742C175.742 881.801 175.582 880.969 175.262 880.308C174.964 879.625 174.516 879.113 173.918 878.772C173.342 878.431 172.617 878.26 171.742 878.26C170.718 878.26 169.833 878.516 169.086 879.028C168.34 879.54 167.881 880.297 167.71 881.3H164.958C165.086 880.148 165.47 879.188 166.11 878.42C166.772 877.631 167.604 877.033 168.606 876.628C169.609 876.201 170.654 875.988 171.742 875.988C173.236 875.988 174.473 876.265 175.454 876.82C176.457 877.353 177.204 878.111 177.694 879.092C178.185 880.052 178.43 881.193 178.43 882.516V892.5H176.03L175.87 889.652C175.657 890.1 175.38 890.527 175.038 890.932C174.718 891.316 174.334 891.657 173.886 891.956C173.438 892.233 172.926 892.457 172.35 892.628C171.796 892.799 171.156 892.884 170.43 892.884ZM170.846 890.612C171.593 890.612 172.265 890.463 172.862 890.164C173.481 889.844 174.004 889.417 174.43 888.884C174.857 888.329 175.177 887.721 175.39 887.06C175.625 886.399 175.742 885.705 175.742 884.98V884.884H171.71C170.665 884.884 169.822 885.012 169.182 885.268C168.542 885.503 168.084 885.844 167.806 886.292C167.529 886.719 167.39 887.209 167.39 887.764C167.39 888.34 167.518 888.841 167.774 889.268C168.052 889.695 168.446 890.025 168.958 890.26C169.492 890.495 170.121 890.612 170.846 890.612ZM181.949 892.5V876.372H184.381L184.509 879.188C185.021 878.185 185.746 877.407 186.685 876.852C187.645 876.276 188.733 875.988 189.949 875.988C191.207 875.988 192.295 876.244 193.213 876.756C194.13 877.247 194.845 878.004 195.357 879.028C195.869 880.031 196.125 881.311 196.125 882.868V892.5H193.437V883.156C193.437 881.535 193.074 880.319 192.349 879.508C191.645 878.697 190.642 878.292 189.341 878.292C188.445 878.292 187.645 878.516 186.941 878.964C186.237 879.391 185.671 880.02 185.245 880.852C184.839 881.663 184.637 882.676 184.637 883.892V892.5H181.949ZM206.02 892.5C205.06 892.5 204.228 892.351 203.524 892.052C202.82 891.753 202.276 891.252 201.892 890.548C201.529 889.823 201.348 888.852 201.348 887.636V878.644H198.532V876.372H201.348L201.7 872.468H204.036V876.372H208.708V878.644H204.036V887.636C204.036 888.639 204.238 889.321 204.644 889.684C205.049 890.025 205.764 890.196 206.788 890.196H208.516V892.5H206.02ZM218.338 892.884C216.844 892.884 215.5 892.543 214.306 891.86C213.111 891.156 212.172 890.175 211.49 888.916C210.807 887.636 210.466 886.153 210.466 884.468C210.466 882.74 210.807 881.247 211.49 879.988C212.194 878.708 213.143 877.727 214.338 877.044C215.554 876.34 216.908 875.988 218.402 875.988C219.938 875.988 221.292 876.34 222.466 877.044C223.66 877.727 224.599 878.708 225.282 879.988C225.986 881.247 226.338 882.729 226.338 884.436C226.338 886.143 225.986 887.636 225.282 888.916C224.578 890.175 223.628 891.156 222.434 891.86C221.239 892.543 219.874 892.884 218.338 892.884ZM218.37 890.58C219.287 890.58 220.14 890.356 220.93 889.908C221.719 889.439 222.359 888.745 222.85 887.828C223.34 886.911 223.586 885.78 223.586 884.436C223.586 883.071 223.34 881.94 222.85 881.044C222.38 880.127 221.751 879.444 220.962 878.996C220.194 878.527 219.34 878.292 218.402 878.292C217.506 878.292 216.652 878.527 215.842 878.996C215.052 879.444 214.412 880.127 213.922 881.044C213.452 881.94 213.218 883.071 213.218 884.436C213.218 885.78 213.452 886.911 213.922 887.828C214.412 888.745 215.042 889.439 215.81 889.908C216.599 890.356 217.452 890.58 218.37 890.58Z" fill="black"/>
</g>
<g filter="url(#filter1_d_266_152)">
<rect x="22" y="956" width="673" height="181" rx="10" fill="white"/>
<path d="M52.88 1029.5L63.12 1001.5H69.24L79.44 1029.5H73.72L66.16 1007.66L58.56 1029.5H52.88ZM57.4 1023.14L58.84 1018.94H73.08L74.48 1023.14H57.4ZM82.1994 1029.5V1009.34H86.9594L87.3594 1012.62C87.9727 1011.5 88.8394 1010.59 89.9594 1009.9C91.106 1009.21 92.466 1008.86 94.0394 1008.86C95.7194 1008.86 97.1327 1009.21 98.2794 1009.9C99.426 1010.59 100.293 1011.61 100.879 1012.94C101.493 1014.27 101.799 1015.91 101.799 1017.86V1029.5H96.4394V1018.38C96.4394 1016.78 96.0927 1015.55 95.3994 1014.7C94.7327 1013.85 93.6927 1013.42 92.2794 1013.42C91.3727 1013.42 90.5594 1013.63 89.8394 1014.06C89.146 1014.49 88.5994 1015.1 88.1994 1015.9C87.7994 1016.67 87.5994 1017.62 87.5994 1018.74V1029.5H82.1994ZM114.767 1038.78C112.847 1038.78 111.167 1038.54 109.727 1038.06C108.287 1037.61 107.167 1036.9 106.367 1035.94C105.594 1035.01 105.207 1033.85 105.207 1032.46C105.207 1031.53 105.447 1030.65 105.927 1029.82C106.407 1028.99 107.1 1028.25 108.007 1027.58C108.94 1026.89 110.1 1026.3 111.487 1025.82L113.527 1028.46C112.3 1028.86 111.407 1029.35 110.847 1029.94C110.314 1030.55 110.047 1031.21 110.047 1031.9C110.047 1032.51 110.247 1033.03 110.647 1033.46C111.074 1033.89 111.634 1034.19 112.327 1034.38C113.047 1034.59 113.847 1034.7 114.727 1034.7C115.58 1034.7 116.314 1034.59 116.927 1034.38C117.567 1034.17 118.06 1033.85 118.407 1033.42C118.78 1033.02 118.967 1032.54 118.967 1031.98C118.967 1031.26 118.714 1030.67 118.207 1030.22C117.7 1029.77 116.687 1029.49 115.167 1029.38C113.807 1029.27 112.594 1029.13 111.527 1028.94C110.487 1028.73 109.567 1028.49 108.767 1028.22C107.967 1027.93 107.287 1027.61 106.727 1027.26C106.194 1026.91 105.754 1026.57 105.407 1026.22V1025.3L109.687 1020.7L113.567 1021.94L108.527 1026.9L110.047 1024.26C110.34 1024.42 110.62 1024.58 110.887 1024.74C111.18 1024.87 111.54 1025.01 111.967 1025.14C112.394 1025.25 112.954 1025.35 113.647 1025.46C114.34 1025.57 115.22 1025.66 116.287 1025.74C118.047 1025.9 119.487 1026.23 120.607 1026.74C121.754 1027.25 122.594 1027.93 123.127 1028.78C123.66 1029.61 123.927 1030.63 123.927 1031.86C123.927 1033.06 123.594 1034.18 122.927 1035.22C122.287 1036.29 121.287 1037.14 119.927 1037.78C118.567 1038.45 116.847 1038.78 114.767 1038.78ZM114.767 1023.54C113.087 1023.54 111.634 1023.22 110.407 1022.58C109.207 1021.91 108.274 1021.03 107.607 1019.94C106.967 1018.82 106.647 1017.58 106.647 1016.22C106.647 1014.86 106.967 1013.63 107.607 1012.54C108.274 1011.42 109.207 1010.53 110.407 1009.86C111.634 1009.19 113.087 1008.86 114.767 1008.86C116.474 1008.86 117.927 1009.19 119.127 1009.86C120.354 1010.53 121.287 1011.42 121.927 1012.54C122.567 1013.63 122.887 1014.86 122.887 1016.22C122.887 1017.58 122.567 1018.82 121.927 1019.94C121.287 1021.03 120.354 1021.91 119.127 1022.58C117.927 1023.22 116.474 1023.54 114.767 1023.54ZM114.767 1019.42C115.807 1019.42 116.647 1019.15 117.287 1018.62C117.927 1018.09 118.247 1017.3 118.247 1016.26C118.247 1015.22 117.927 1014.43 117.287 1013.9C116.647 1013.34 115.807 1013.06 114.767 1013.06C113.754 1013.06 112.914 1013.34 112.247 1013.9C111.607 1014.43 111.287 1015.22 111.287 1016.26C111.287 1017.3 111.607 1018.09 112.247 1018.62C112.914 1019.15 113.754 1019.42 114.767 1019.42ZM118.127 1013.18L117.247 1009.34H125.527V1012.54L118.127 1013.18ZM137.795 1038.78C135.875 1038.78 134.195 1038.54 132.755 1038.06C131.315 1037.61 130.195 1036.9 129.395 1035.94C128.622 1035.01 128.235 1033.85 128.235 1032.46C128.235 1031.53 128.475 1030.65 128.955 1029.82C129.435 1028.99 130.128 1028.25 131.035 1027.58C131.968 1026.89 133.128 1026.3 134.515 1025.82L136.555 1028.46C135.328 1028.86 134.435 1029.35 133.875 1029.94C133.342 1030.55 133.075 1031.21 133.075 1031.9C133.075 1032.51 133.275 1033.03 133.675 1033.46C134.102 1033.89 134.662 1034.19 135.355 1034.38C136.075 1034.59 136.875 1034.7 137.755 1034.7C138.608 1034.7 139.342 1034.59 139.955 1034.38C140.595 1034.17 141.088 1033.85 141.435 1033.42C141.808 1033.02 141.995 1032.54 141.995 1031.98C141.995 1031.26 141.742 1030.67 141.235 1030.22C140.728 1029.77 139.715 1029.49 138.195 1029.38C136.835 1029.27 135.622 1029.13 134.555 1028.94C133.515 1028.73 132.595 1028.49 131.795 1028.22C130.995 1027.93 130.315 1027.61 129.755 1027.26C129.222 1026.91 128.782 1026.57 128.435 1026.22V1025.3L132.715 1020.7L136.595 1021.94L131.555 1026.9L133.075 1024.26C133.368 1024.42 133.648 1024.58 133.915 1024.74C134.208 1024.87 134.568 1025.01 134.995 1025.14C135.422 1025.25 135.982 1025.35 136.675 1025.46C137.368 1025.57 138.248 1025.66 139.315 1025.74C141.075 1025.9 142.515 1026.23 143.635 1026.74C144.782 1027.25 145.622 1027.93 146.155 1028.78C146.688 1029.61 146.955 1030.63 146.955 1031.86C146.955 1033.06 146.622 1034.18 145.955 1035.22C145.315 1036.29 144.315 1037.14 142.955 1037.78C141.595 1038.45 139.875 1038.78 137.795 1038.78ZM137.795 1023.54C136.115 1023.54 134.662 1023.22 133.435 1022.58C132.235 1021.91 131.302 1021.03 130.635 1019.94C129.995 1018.82 129.675 1017.58 129.675 1016.22C129.675 1014.86 129.995 1013.63 130.635 1012.54C131.302 1011.42 132.235 1010.53 133.435 1009.86C134.662 1009.19 136.115 1008.86 137.795 1008.86C139.502 1008.86 140.955 1009.19 142.155 1009.86C143.382 1010.53 144.315 1011.42 144.955 1012.54C145.595 1013.63 145.915 1014.86 145.915 1016.22C145.915 1017.58 145.595 1018.82 144.955 1019.94C144.315 1021.03 143.382 1021.91 142.155 1022.58C140.955 1023.22 139.502 1023.54 137.795 1023.54ZM137.795 1019.42C138.835 1019.42 139.675 1019.15 140.315 1018.62C140.955 1018.09 141.275 1017.3 141.275 1016.26C141.275 1015.22 140.955 1014.43 140.315 1013.9C139.675 1013.34 138.835 1013.06 137.795 1013.06C136.782 1013.06 135.942 1013.34 135.275 1013.9C134.635 1014.43 134.315 1015.22 134.315 1016.26C134.315 1017.3 134.635 1018.09 135.275 1018.62C135.942 1019.15 136.782 1019.42 137.795 1019.42ZM141.155 1013.18L140.275 1009.34H148.555V1012.54L141.155 1013.18ZM160.882 1029.98C158.962 1029.98 157.229 1029.54 155.682 1028.66C154.162 1027.75 152.949 1026.51 152.042 1024.94C151.162 1023.34 150.722 1021.51 150.722 1019.46C150.722 1017.35 151.162 1015.51 152.042 1013.94C152.949 1012.34 154.175 1011.1 155.722 1010.22C157.269 1009.31 159.002 1008.86 160.922 1008.86C162.869 1008.86 164.602 1009.31 166.122 1010.22C167.669 1011.1 168.882 1012.34 169.762 1013.94C170.669 1015.51 171.122 1017.34 171.122 1019.42C171.122 1021.5 170.669 1023.34 169.762 1024.94C168.882 1026.51 167.669 1027.75 166.122 1028.66C164.575 1029.54 162.829 1029.98 160.882 1029.98ZM160.882 1025.3C161.789 1025.3 162.589 1025.09 163.282 1024.66C164.002 1024.23 164.562 1023.58 164.962 1022.7C165.389 1021.82 165.602 1020.73 165.602 1019.42C165.602 1018.11 165.389 1017.03 164.962 1016.18C164.562 1015.3 164.002 1014.65 163.282 1014.22C162.589 1013.77 161.802 1013.54 160.922 1013.54C160.069 1013.54 159.282 1013.77 158.562 1014.22C157.842 1014.65 157.269 1015.3 156.842 1016.18C156.442 1017.03 156.242 1018.11 156.242 1019.42C156.242 1020.73 156.442 1021.82 156.842 1022.7C157.269 1023.58 157.829 1024.23 158.522 1024.66C159.242 1025.09 160.029 1025.3 160.882 1025.3ZM183.275 1029.5C181.861 1029.5 180.621 1029.29 179.555 1028.86C178.515 1028.41 177.701 1027.67 177.115 1026.66C176.528 1025.62 176.235 1024.21 176.235 1022.42V1013.86H172.795V1009.34H176.235L176.835 1003.86H181.635V1009.34H186.955V1013.86H181.635V1022.5C181.635 1023.41 181.835 1024.03 182.235 1024.38C182.635 1024.73 183.315 1024.9 184.275 1024.9H186.915V1029.5H183.275ZM197.499 1029.98C195.819 1029.98 194.433 1029.71 193.339 1029.18C192.246 1028.62 191.433 1027.89 190.899 1026.98C190.393 1026.05 190.139 1025.02 190.139 1023.9C190.139 1022.67 190.446 1021.59 191.059 1020.66C191.699 1019.73 192.646 1018.99 193.899 1018.46C195.179 1017.93 196.779 1017.66 198.699 1017.66H203.699C203.699 1016.67 203.566 1015.86 203.299 1015.22C203.033 1014.55 202.619 1014.06 202.059 1013.74C201.499 1013.42 200.753 1013.26 199.819 1013.26C198.806 1013.26 197.939 1013.49 197.219 1013.94C196.526 1014.37 196.099 1015.03 195.939 1015.94H190.699C190.833 1014.5 191.299 1013.26 192.099 1012.22C192.926 1011.15 194.006 1010.33 195.339 1009.74C196.699 1009.15 198.206 1008.86 199.859 1008.86C201.753 1008.86 203.393 1009.18 204.779 1009.82C206.166 1010.46 207.233 1011.38 207.979 1012.58C208.726 1013.78 209.099 1015.26 209.099 1017.02V1029.5H204.539L203.939 1026.42C203.646 1026.95 203.299 1027.43 202.899 1027.86C202.499 1028.29 202.033 1028.66 201.499 1028.98C200.966 1029.3 200.366 1029.54 199.699 1029.7C199.033 1029.89 198.299 1029.98 197.499 1029.98ZM198.779 1025.82C199.473 1025.82 200.086 1025.7 200.619 1025.46C201.179 1025.19 201.659 1024.85 202.059 1024.42C202.459 1023.97 202.766 1023.46 202.979 1022.9C203.219 1022.31 203.379 1021.69 203.459 1021.02V1020.98H199.339C198.513 1020.98 197.833 1021.09 197.299 1021.3C196.793 1021.49 196.419 1021.77 196.179 1022.14C195.939 1022.51 195.819 1022.94 195.819 1023.42C195.819 1023.95 195.939 1024.39 196.179 1024.74C196.419 1025.09 196.766 1025.35 197.219 1025.54C197.673 1025.73 198.193 1025.82 198.779 1025.82Z" fill="#BC4F07"/>
<line x1="52" y1="1050" x2="665" y2="1050" stroke="#B9B9B9" stroke-width="3"/>
<path d="M54.4 1093.5V1071.1H57.088L69.024 1089.05V1071.1H71.712V1093.5H69.024L57.088 1075.55V1093.5H54.4ZM81.581 1093.88C80.3437 1093.88 79.2557 1093.64 78.317 1093.15C77.3997 1092.66 76.685 1091.9 76.173 1090.88C75.6823 1089.85 75.437 1088.57 75.437 1087.04V1077.37H78.125V1086.75C78.125 1088.35 78.477 1089.55 79.181 1090.36C79.885 1091.17 80.877 1091.58 82.157 1091.58C83.053 1091.58 83.8637 1091.37 84.589 1090.94C85.3143 1090.49 85.8797 1089.86 86.285 1089.05C86.7117 1088.22 86.925 1087.21 86.925 1086.01V1077.37H89.613V1093.5H87.181L87.021 1090.68C86.5303 1091.69 85.805 1092.48 84.845 1093.05C83.885 1093.61 82.797 1093.88 81.581 1093.88ZM93.4288 1093.5V1077.37H95.8608L96.0528 1080.44C96.4154 1079.72 96.8741 1079.1 97.4288 1078.59C98.0048 1078.08 98.6874 1077.68 99.4768 1077.4C100.287 1077.13 101.205 1076.99 102.229 1076.99V1079.8H101.237C100.554 1079.8 99.9034 1079.9 99.2848 1080.09C98.6661 1080.26 98.1114 1080.55 97.6208 1080.96C97.1514 1081.36 96.7781 1081.92 96.5008 1082.62C96.2448 1083.3 96.1168 1084.16 96.1168 1085.18V1093.5H93.4288ZM104.889 1093.5V1077.37H107.577V1093.5H104.889ZM106.233 1073.95C105.699 1073.95 105.251 1073.78 104.889 1073.44C104.547 1073.07 104.377 1072.63 104.377 1072.09C104.377 1071.56 104.547 1071.13 104.889 1070.81C105.251 1070.47 105.699 1070.3 106.233 1070.3C106.745 1070.3 107.182 1070.47 107.545 1070.81C107.907 1071.13 108.089 1071.56 108.089 1072.09C108.089 1072.63 107.907 1073.07 107.545 1073.44C107.182 1073.78 106.745 1073.95 106.233 1073.95ZM111.68 1093.5V1070.46H114.368V1093.5H111.68ZM140.489 1093.5V1071.1H143.177V1093.5H140.489ZM126.185 1093.5V1071.1H128.873V1093.5H126.185ZM128.361 1083.2V1080.99H141.161V1083.2H128.361ZM153.022 1093.88C151.785 1093.88 150.697 1093.64 149.758 1093.15C148.841 1092.66 148.126 1091.9 147.614 1090.88C147.124 1089.85 146.878 1088.57 146.878 1087.04V1077.37H149.566V1086.75C149.566 1088.35 149.918 1089.55 150.622 1090.36C151.326 1091.17 152.318 1091.58 153.598 1091.58C154.494 1091.58 155.305 1091.37 156.03 1090.94C156.756 1090.49 157.321 1089.86 157.726 1089.05C158.153 1088.22 158.366 1087.21 158.366 1086.01V1077.37H161.054V1093.5H158.622L158.462 1090.68C157.972 1091.69 157.246 1092.48 156.286 1093.05C155.326 1093.61 154.238 1093.88 153.022 1093.88ZM171.974 1093.88C170.417 1093.88 169.051 1093.52 167.878 1092.8C166.705 1092.05 165.798 1091.04 165.158 1089.76C164.518 1088.48 164.198 1087.03 164.198 1085.4C164.198 1083.78 164.518 1082.34 165.158 1081.08C165.798 1079.8 166.705 1078.8 167.878 1078.08C169.073 1077.35 170.449 1076.99 172.006 1076.99C173.329 1076.99 174.481 1077.25 175.462 1077.79C176.465 1078.32 177.233 1079.07 177.766 1080.03V1070.46H180.454V1093.5H178.022L177.798 1090.84C177.457 1091.38 177.019 1091.88 176.486 1092.35C175.953 1092.8 175.313 1093.17 174.566 1093.47C173.819 1093.75 172.955 1093.88 171.974 1093.88ZM172.294 1091.55C173.361 1091.55 174.299 1091.29 175.11 1090.78C175.921 1090.27 176.55 1089.56 176.998 1088.67C177.446 1087.75 177.67 1086.67 177.67 1085.44C177.67 1084.22 177.446 1083.15 176.998 1082.24C176.55 1081.32 175.921 1080.6 175.11 1080.09C174.299 1079.58 173.361 1079.32 172.294 1079.32C171.249 1079.32 170.321 1079.58 169.51 1080.09C168.699 1080.6 168.07 1081.32 167.622 1082.24C167.174 1083.15 166.95 1084.22 166.95 1085.44C166.95 1086.67 167.174 1087.75 167.622 1088.67C168.07 1089.56 168.699 1090.27 169.51 1090.78C170.321 1091.29 171.249 1091.55 172.294 1091.55ZM189.541 1093.88C188.239 1093.88 187.151 1093.66 186.277 1093.21C185.402 1092.74 184.751 1092.13 184.325 1091.39C183.898 1090.62 183.685 1089.79 183.685 1088.89C183.685 1087.8 183.962 1086.89 184.517 1086.14C185.093 1085.37 185.893 1084.8 186.917 1084.41C187.962 1084.01 189.189 1083.8 190.597 1083.8H194.853C194.853 1082.8 194.693 1081.97 194.373 1081.31C194.074 1080.63 193.626 1080.11 193.029 1079.77C192.453 1079.43 191.727 1079.26 190.853 1079.26C189.829 1079.26 188.943 1079.52 188.197 1080.03C187.45 1080.54 186.991 1081.3 186.821 1082.3H184.069C184.197 1081.15 184.581 1080.19 185.221 1079.42C185.882 1078.63 186.714 1078.03 187.717 1077.63C188.719 1077.2 189.765 1076.99 190.853 1076.99C192.346 1076.99 193.583 1077.27 194.565 1077.82C195.567 1078.35 196.314 1079.11 196.805 1080.09C197.295 1081.05 197.541 1082.19 197.541 1083.52V1093.5H195.141L194.981 1090.65C194.767 1091.1 194.49 1091.53 194.149 1091.93C193.829 1092.32 193.445 1092.66 192.997 1092.96C192.549 1093.23 192.037 1093.46 191.461 1093.63C190.906 1093.8 190.266 1093.88 189.541 1093.88ZM189.957 1091.61C190.703 1091.61 191.375 1091.46 191.973 1091.16C192.591 1090.84 193.114 1090.42 193.541 1089.88C193.967 1089.33 194.287 1088.72 194.501 1088.06C194.735 1087.4 194.853 1086.71 194.853 1085.98V1085.88H190.821C189.775 1085.88 188.933 1086.01 188.293 1086.27C187.653 1086.5 187.194 1086.84 186.917 1087.29C186.639 1087.72 186.501 1088.21 186.501 1088.76C186.501 1089.34 186.629 1089.84 186.885 1090.27C187.162 1090.69 187.557 1091.03 188.069 1091.26C188.602 1091.49 189.231 1091.61 189.957 1091.61Z" fill="black"/>
</g>
<g filter="url(#filter2_d_266_152)">
<rect x="22" y="1157" width="673" height="181" rx="10" fill="white"/>
<path d="M52.88 1230.5L63.12 1202.5H69.24L79.44 1230.5H73.72L66.16 1208.66L58.56 1230.5H52.88ZM57.4 1224.14L58.84 1219.94H73.08L74.48 1224.14H57.4ZM82.1994 1230.5V1210.34H86.9594L87.3594 1213.62C87.9727 1212.5 88.8394 1211.59 89.9594 1210.9C91.106 1210.21 92.466 1209.86 94.0394 1209.86C95.7194 1209.86 97.1327 1210.21 98.2794 1210.9C99.426 1211.59 100.293 1212.61 100.879 1213.94C101.493 1215.27 101.799 1216.91 101.799 1218.86V1230.5H96.4394V1219.38C96.4394 1217.78 96.0927 1216.55 95.3994 1215.7C94.7327 1214.85 93.6927 1214.42 92.2794 1214.42C91.3727 1214.42 90.5594 1214.63 89.8394 1215.06C89.146 1215.49 88.5994 1216.1 88.1994 1216.9C87.7994 1217.67 87.5994 1218.62 87.5994 1219.74V1230.5H82.1994ZM114.767 1239.78C112.847 1239.78 111.167 1239.54 109.727 1239.06C108.287 1238.61 107.167 1237.9 106.367 1236.94C105.594 1236.01 105.207 1234.85 105.207 1233.46C105.207 1232.53 105.447 1231.65 105.927 1230.82C106.407 1229.99 107.1 1229.25 108.007 1228.58C108.94 1227.89 110.1 1227.3 111.487 1226.82L113.527 1229.46C112.3 1229.86 111.407 1230.35 110.847 1230.94C110.314 1231.55 110.047 1232.21 110.047 1232.9C110.047 1233.51 110.247 1234.03 110.647 1234.46C111.074 1234.89 111.634 1235.19 112.327 1235.38C113.047 1235.59 113.847 1235.7 114.727 1235.7C115.58 1235.7 116.314 1235.59 116.927 1235.38C117.567 1235.17 118.06 1234.85 118.407 1234.42C118.78 1234.02 118.967 1233.54 118.967 1232.98C118.967 1232.26 118.714 1231.67 118.207 1231.22C117.7 1230.77 116.687 1230.49 115.167 1230.38C113.807 1230.27 112.594 1230.13 111.527 1229.94C110.487 1229.73 109.567 1229.49 108.767 1229.22C107.967 1228.93 107.287 1228.61 106.727 1228.26C106.194 1227.91 105.754 1227.57 105.407 1227.22V1226.3L109.687 1221.7L113.567 1222.94L108.527 1227.9L110.047 1225.26C110.34 1225.42 110.62 1225.58 110.887 1225.74C111.18 1225.87 111.54 1226.01 111.967 1226.14C112.394 1226.25 112.954 1226.35 113.647 1226.46C114.34 1226.57 115.22 1226.66 116.287 1226.74C118.047 1226.9 119.487 1227.23 120.607 1227.74C121.754 1228.25 122.594 1228.93 123.127 1229.78C123.66 1230.61 123.927 1231.63 123.927 1232.86C123.927 1234.06 123.594 1235.18 122.927 1236.22C122.287 1237.29 121.287 1238.14 119.927 1238.78C118.567 1239.45 116.847 1239.78 114.767 1239.78ZM114.767 1224.54C113.087 1224.54 111.634 1224.22 110.407 1223.58C109.207 1222.91 108.274 1222.03 107.607 1220.94C106.967 1219.82 106.647 1218.58 106.647 1217.22C106.647 1215.86 106.967 1214.63 107.607 1213.54C108.274 1212.42 109.207 1211.53 110.407 1210.86C111.634 1210.19 113.087 1209.86 114.767 1209.86C116.474 1209.86 117.927 1210.19 119.127 1210.86C120.354 1211.53 121.287 1212.42 121.927 1213.54C122.567 1214.63 122.887 1215.86 122.887 1217.22C122.887 1218.58 122.567 1219.82 121.927 1220.94C121.287 1222.03 120.354 1222.91 119.127 1223.58C117.927 1224.22 116.474 1224.54 114.767 1224.54ZM114.767 1220.42C115.807 1220.42 116.647 1220.15 117.287 1219.62C117.927 1219.09 118.247 1218.3 118.247 1217.26C118.247 1216.22 117.927 1215.43 117.287 1214.9C116.647 1214.34 115.807 1214.06 114.767 1214.06C113.754 1214.06 112.914 1214.34 112.247 1214.9C111.607 1215.43 111.287 1216.22 111.287 1217.26C111.287 1218.3 111.607 1219.09 112.247 1219.62C112.914 1220.15 113.754 1220.42 114.767 1220.42ZM118.127 1214.18L117.247 1210.34H125.527V1213.54L118.127 1214.18ZM137.795 1239.78C135.875 1239.78 134.195 1239.54 132.755 1239.06C131.315 1238.61 130.195 1237.9 129.395 1236.94C128.622 1236.01 128.235 1234.85 128.235 1233.46C128.235 1232.53 128.475 1231.65 128.955 1230.82C129.435 1229.99 130.128 1229.25 131.035 1228.58C131.968 1227.89 133.128 1227.3 134.515 1226.82L136.555 1229.46C135.328 1229.86 134.435 1230.35 133.875 1230.94C133.342 1231.55 133.075 1232.21 133.075 1232.9C133.075 1233.51 133.275 1234.03 133.675 1234.46C134.102 1234.89 134.662 1235.19 135.355 1235.38C136.075 1235.59 136.875 1235.7 137.755 1235.7C138.608 1235.7 139.342 1235.59 139.955 1235.38C140.595 1235.17 141.088 1234.85 141.435 1234.42C141.808 1234.02 141.995 1233.54 141.995 1232.98C141.995 1232.26 141.742 1231.67 141.235 1231.22C140.728 1230.77 139.715 1230.49 138.195 1230.38C136.835 1230.27 135.622 1230.13 134.555 1229.94C133.515 1229.73 132.595 1229.49 131.795 1229.22C130.995 1228.93 130.315 1228.61 129.755 1228.26C129.222 1227.91 128.782 1227.57 128.435 1227.22V1226.3L132.715 1221.7L136.595 1222.94L131.555 1227.9L133.075 1225.26C133.368 1225.42 133.648 1225.58 133.915 1225.74C134.208 1225.87 134.568 1226.01 134.995 1226.14C135.422 1226.25 135.982 1226.35 136.675 1226.46C137.368 1226.57 138.248 1226.66 139.315 1226.74C141.075 1226.9 142.515 1227.23 143.635 1227.74C144.782 1228.25 145.622 1228.93 146.155 1229.78C146.688 1230.61 146.955 1231.63 146.955 1232.86C146.955 1234.06 146.622 1235.18 145.955 1236.22C145.315 1237.29 144.315 1238.14 142.955 1238.78C141.595 1239.45 139.875 1239.78 137.795 1239.78ZM137.795 1224.54C136.115 1224.54 134.662 1224.22 133.435 1223.58C132.235 1222.91 131.302 1222.03 130.635 1220.94C129.995 1219.82 129.675 1218.58 129.675 1217.22C129.675 1215.86 129.995 1214.63 130.635 1213.54C131.302 1212.42 132.235 1211.53 133.435 1210.86C134.662 1210.19 136.115 1209.86 137.795 1209.86C139.502 1209.86 140.955 1210.19 142.155 1210.86C143.382 1211.53 144.315 1212.42 144.955 1213.54C145.595 1214.63 145.915 1215.86 145.915 1217.22C145.915 1218.58 145.595 1219.82 144.955 1220.94C144.315 1222.03 143.382 1222.91 142.155 1223.58C140.955 1224.22 139.502 1224.54 137.795 1224.54ZM137.795 1220.42C138.835 1220.42 139.675 1220.15 140.315 1219.62C140.955 1219.09 141.275 1218.3 141.275 1217.26C141.275 1216.22 140.955 1215.43 140.315 1214.9C139.675 1214.34 138.835 1214.06 137.795 1214.06C136.782 1214.06 135.942 1214.34 135.275 1214.9C134.635 1215.43 134.315 1216.22 134.315 1217.26C134.315 1218.3 134.635 1219.09 135.275 1219.62C135.942 1220.15 136.782 1220.42 137.795 1220.42ZM141.155 1214.18L140.275 1210.34H148.555V1213.54L141.155 1214.18ZM160.882 1230.98C158.962 1230.98 157.229 1230.54 155.682 1229.66C154.162 1228.75 152.949 1227.51 152.042 1225.94C151.162 1224.34 150.722 1222.51 150.722 1220.46C150.722 1218.35 151.162 1216.51 152.042 1214.94C152.949 1213.34 154.175 1212.1 155.722 1211.22C157.269 1210.31 159.002 1209.86 160.922 1209.86C162.869 1209.86 164.602 1210.31 166.122 1211.22C167.669 1212.1 168.882 1213.34 169.762 1214.94C170.669 1216.51 171.122 1218.34 171.122 1220.42C171.122 1222.5 170.669 1224.34 169.762 1225.94C168.882 1227.51 167.669 1228.75 166.122 1229.66C164.575 1230.54 162.829 1230.98 160.882 1230.98ZM160.882 1226.3C161.789 1226.3 162.589 1226.09 163.282 1225.66C164.002 1225.23 164.562 1224.58 164.962 1223.7C165.389 1222.82 165.602 1221.73 165.602 1220.42C165.602 1219.11 165.389 1218.03 164.962 1217.18C164.562 1216.3 164.002 1215.65 163.282 1215.22C162.589 1214.77 161.802 1214.54 160.922 1214.54C160.069 1214.54 159.282 1214.77 158.562 1215.22C157.842 1215.65 157.269 1216.3 156.842 1217.18C156.442 1218.03 156.242 1219.11 156.242 1220.42C156.242 1221.73 156.442 1222.82 156.842 1223.7C157.269 1224.58 157.829 1225.23 158.522 1225.66C159.242 1226.09 160.029 1226.3 160.882 1226.3ZM183.275 1230.5C181.861 1230.5 180.621 1230.29 179.555 1229.86C178.515 1229.41 177.701 1228.67 177.115 1227.66C176.528 1226.62 176.235 1225.21 176.235 1223.42V1214.86H172.795V1210.34H176.235L176.835 1204.86H181.635V1210.34H186.955V1214.86H181.635V1223.5C181.635 1224.41 181.835 1225.03 182.235 1225.38C182.635 1225.73 183.315 1225.9 184.275 1225.9H186.915V1230.5H183.275ZM197.499 1230.98C195.819 1230.98 194.433 1230.71 193.339 1230.18C192.246 1229.62 191.433 1228.89 190.899 1227.98C190.393 1227.05 190.139 1226.02 190.139 1224.9C190.139 1223.67 190.446 1222.59 191.059 1221.66C191.699 1220.73 192.646 1219.99 193.899 1219.46C195.179 1218.93 196.779 1218.66 198.699 1218.66H203.699C203.699 1217.67 203.566 1216.86 203.299 1216.22C203.033 1215.55 202.619 1215.06 202.059 1214.74C201.499 1214.42 200.753 1214.26 199.819 1214.26C198.806 1214.26 197.939 1214.49 197.219 1214.94C196.526 1215.37 196.099 1216.03 195.939 1216.94H190.699C190.833 1215.5 191.299 1214.26 192.099 1213.22C192.926 1212.15 194.006 1211.33 195.339 1210.74C196.699 1210.15 198.206 1209.86 199.859 1209.86C201.753 1209.86 203.393 1210.18 204.779 1210.82C206.166 1211.46 207.233 1212.38 207.979 1213.58C208.726 1214.78 209.099 1216.26 209.099 1218.02V1230.5H204.539L203.939 1227.42C203.646 1227.95 203.299 1228.43 202.899 1228.86C202.499 1229.29 202.033 1229.66 201.499 1229.98C200.966 1230.3 200.366 1230.54 199.699 1230.7C199.033 1230.89 198.299 1230.98 197.499 1230.98ZM198.779 1226.82C199.473 1226.82 200.086 1226.7 200.619 1226.46C201.179 1226.19 201.659 1225.85 202.059 1225.42C202.459 1224.97 202.766 1224.46 202.979 1223.9C203.219 1223.31 203.379 1222.69 203.459 1222.02V1221.98H199.339C198.513 1221.98 197.833 1222.09 197.299 1222.3C196.793 1222.49 196.419 1222.77 196.179 1223.14C195.939 1223.51 195.819 1223.94 195.819 1224.42C195.819 1224.95 195.939 1225.39 196.179 1225.74C196.419 1226.09 196.766 1226.35 197.219 1226.54C197.673 1226.73 198.193 1226.82 198.779 1226.82Z" fill="#BC4F07"/>
<line x1="52" y1="1251" x2="665" y2="1251" stroke="#B9B9B9" stroke-width="3"/>
<path d="M53.44 1294.5V1292.39L64.608 1274.44H53.6V1272.1H67.744V1274.21L56.544 1292.16H67.872V1294.5H53.44ZM76.1605 1294.88C74.8592 1294.88 73.7712 1294.66 72.8965 1294.21C72.0218 1293.74 71.3712 1293.13 70.9445 1292.39C70.5178 1291.62 70.3045 1290.79 70.3045 1289.89C70.3045 1288.8 70.5818 1287.89 71.1365 1287.14C71.7125 1286.37 72.5125 1285.8 73.5365 1285.41C74.5818 1285.01 75.8085 1284.8 77.2165 1284.8H81.4725C81.4725 1283.8 81.3125 1282.97 80.9925 1282.31C80.6938 1281.63 80.2458 1281.11 79.6485 1280.77C79.0725 1280.43 78.3472 1280.26 77.4725 1280.26C76.4485 1280.26 75.5632 1280.52 74.8165 1281.03C74.0698 1281.54 73.6112 1282.3 73.4405 1283.3H70.6885C70.8165 1282.15 71.2005 1281.19 71.8405 1280.42C72.5018 1279.63 73.3338 1279.03 74.3365 1278.63C75.3392 1278.2 76.3845 1277.99 77.4725 1277.99C78.9658 1277.99 80.2032 1278.27 81.1845 1278.82C82.1872 1279.35 82.9338 1280.11 83.4245 1281.09C83.9152 1282.05 84.1605 1283.19 84.1605 1284.52V1294.5H81.7605L81.6005 1291.65C81.3872 1292.1 81.1098 1292.53 80.7685 1292.93C80.4485 1293.32 80.0645 1293.66 79.6165 1293.96C79.1685 1294.23 78.6565 1294.46 78.0805 1294.63C77.5258 1294.8 76.8858 1294.88 76.1605 1294.88ZM76.5765 1292.61C77.3232 1292.61 77.9952 1292.46 78.5925 1292.16C79.2112 1291.84 79.7338 1291.42 80.1605 1290.88C80.5872 1290.33 80.9072 1289.72 81.1205 1289.06C81.3552 1288.4 81.4725 1287.71 81.4725 1286.98V1286.88H77.4405C76.3952 1286.88 75.5525 1287.01 74.9125 1287.27C74.2725 1287.5 73.8138 1287.84 73.5365 1288.29C73.2592 1288.72 73.1205 1289.21 73.1205 1289.76C73.1205 1290.34 73.2485 1290.84 73.5045 1291.27C73.7818 1291.69 74.1765 1292.03 74.6885 1292.26C75.2218 1292.49 75.8512 1292.61 76.5765 1292.61ZM87.9348 1294.5V1278.37H90.6228V1294.5H87.9348ZM89.2788 1274.95C88.7454 1274.95 88.2974 1274.78 87.9348 1274.44C87.5934 1274.07 87.4228 1273.63 87.4228 1273.09C87.4228 1272.56 87.5934 1272.13 87.9348 1271.81C88.2974 1271.47 88.7454 1271.3 89.2788 1271.3C89.7908 1271.3 90.2281 1271.47 90.5908 1271.81C90.9534 1272.13 91.1348 1272.56 91.1348 1273.09C91.1348 1273.63 90.9534 1274.07 90.5908 1274.44C90.2281 1274.78 89.7908 1274.95 89.2788 1274.95ZM94.7263 1294.5V1278.37H97.1583L97.2863 1281.19C97.7983 1280.19 98.5236 1279.41 99.4623 1278.85C100.422 1278.28 101.51 1277.99 102.726 1277.99C103.985 1277.99 105.073 1278.24 105.99 1278.76C106.908 1279.25 107.622 1280 108.134 1281.03C108.646 1282.03 108.902 1283.31 108.902 1284.87V1294.5H106.214V1285.16C106.214 1283.53 105.852 1282.32 105.126 1281.51C104.422 1280.7 103.42 1280.29 102.118 1280.29C101.222 1280.29 100.422 1280.52 99.7183 1280.96C99.0143 1281.39 98.4489 1282.02 98.0223 1282.85C97.6169 1283.66 97.4143 1284.68 97.4143 1285.89V1294.5H94.7263ZM118.317 1294.88C117.08 1294.88 115.992 1294.64 115.053 1294.15C114.136 1293.66 113.421 1292.9 112.909 1291.88C112.419 1290.85 112.173 1289.57 112.173 1288.04V1278.37H114.861V1287.75C114.861 1289.35 115.213 1290.55 115.917 1291.36C116.621 1292.17 117.613 1292.58 118.893 1292.58C119.789 1292.58 120.6 1292.37 121.325 1291.94C122.051 1291.49 122.616 1290.86 123.021 1290.05C123.448 1289.22 123.661 1288.21 123.661 1287.01V1278.37H126.349V1294.5H123.917L123.757 1291.68C123.267 1292.69 122.541 1293.48 121.581 1294.05C120.621 1294.61 119.533 1294.88 118.317 1294.88ZM130.165 1294.5V1271.46H132.853V1294.5H130.165ZM143.23 1294.5L151.486 1272.1H154.334L162.558 1294.5H159.71L152.894 1275.46L146.046 1294.5H143.23ZM147.006 1288.74L147.774 1286.56H157.918L158.686 1288.74H147.006ZM165.12 1294.5V1278.37H167.552L167.744 1281.44C168.107 1280.72 168.565 1280.1 169.12 1279.59C169.696 1279.08 170.379 1278.68 171.168 1278.4C171.979 1278.13 172.896 1277.99 173.92 1277.99V1280.8H172.928C172.245 1280.8 171.595 1280.9 170.976 1281.09C170.357 1281.26 169.803 1281.55 169.312 1281.96C168.843 1282.36 168.469 1282.92 168.192 1283.62C167.936 1284.3 167.808 1285.16 167.808 1286.18V1294.5H165.12ZM176.58 1294.5V1278.37H179.268V1294.5H176.58ZM177.924 1274.95C177.39 1274.95 176.942 1274.78 176.58 1274.44C176.238 1274.07 176.068 1273.63 176.068 1273.09C176.068 1272.56 176.238 1272.13 176.58 1271.81C176.942 1271.47 177.39 1271.3 177.924 1271.3C178.436 1271.3 178.873 1271.47 179.236 1271.81C179.598 1272.13 179.78 1272.56 179.78 1273.09C179.78 1273.63 179.598 1274.07 179.236 1274.44C178.873 1274.78 178.436 1274.95 177.924 1274.95ZM184.267 1294.5V1280.64H181.803V1278.37H184.267V1275.88C184.267 1274.85 184.438 1274.02 184.779 1273.38C185.121 1272.72 185.622 1272.24 186.283 1271.94C186.966 1271.62 187.798 1271.46 188.779 1271.46H190.379V1273.76H189.195C188.406 1273.76 187.83 1273.92 187.467 1274.24C187.126 1274.56 186.955 1275.13 186.955 1275.94V1278.37H196.619V1294.5H193.931V1280.64H186.955V1294.5H184.267ZM195.307 1275.3C194.795 1275.3 194.358 1275.13 193.995 1274.79C193.633 1274.43 193.451 1273.98 193.451 1273.44C193.451 1272.91 193.633 1272.48 193.995 1272.16C194.358 1271.82 194.795 1271.65 195.307 1271.65C195.841 1271.65 196.278 1271.82 196.619 1272.16C196.982 1272.48 197.163 1272.91 197.163 1273.44C197.163 1273.98 196.982 1274.43 196.619 1274.79C196.278 1275.13 195.841 1275.3 195.307 1275.3ZM200.763 1294.5V1278.37H203.195L203.323 1281.19C203.835 1280.19 204.56 1279.41 205.499 1278.85C206.459 1278.28 207.547 1277.99 208.763 1277.99C210.021 1277.99 211.109 1278.24 212.027 1278.76C212.944 1279.25 213.659 1280 214.171 1281.03C214.683 1282.03 214.939 1283.31 214.939 1284.87V1294.5H212.251V1285.16C212.251 1283.53 211.888 1282.32 211.163 1281.51C210.459 1280.7 209.456 1280.29 208.155 1280.29C207.259 1280.29 206.459 1280.52 205.755 1280.96C205.051 1281.39 204.485 1282.02 204.059 1282.85C203.653 1283.66 203.451 1284.68 203.451 1285.89V1294.5H200.763Z" fill="black"/>
</g>
<g filter="url(#filter3_d_266_152)">
<g clip-path="url(#clip0_266_152)">
<rect x="433.6" y="300" width="589.934" height="181.126" rx="10" fill="white"/>
<path d="M472 373.563L464.64 345.563H470.4L475.28 367.443L481.04 345.563H487L492.6 367.443L497.52 345.563H503.32L495.76 373.563H489.32L483.96 353.163L478.4 373.563H472ZM510.599 374.043C508.919 374.043 507.532 373.777 506.439 373.243C505.346 372.683 504.532 371.95 503.999 371.043C503.492 370.11 503.239 369.083 503.239 367.963C503.239 366.737 503.546 365.657 504.159 364.723C504.799 363.79 505.746 363.057 506.999 362.523C508.279 361.99 509.879 361.723 511.799 361.723H516.799C516.799 360.737 516.666 359.923 516.399 359.283C516.132 358.617 515.719 358.123 515.159 357.803C514.599 357.483 513.852 357.323 512.919 357.323C511.906 357.323 511.039 357.55 510.319 358.003C509.626 358.43 509.199 359.097 509.039 360.003H503.799C503.932 358.563 504.399 357.323 505.199 356.283C506.026 355.217 507.106 354.39 508.439 353.803C509.799 353.217 511.306 352.923 512.959 352.923C514.852 352.923 516.492 353.243 517.879 353.883C519.266 354.523 520.332 355.443 521.079 356.643C521.826 357.843 522.199 359.323 522.199 361.083V373.563H517.639L517.039 370.483C516.746 371.017 516.399 371.497 515.999 371.923C515.599 372.35 515.132 372.723 514.599 373.043C514.066 373.363 513.466 373.603 512.799 373.763C512.132 373.95 511.399 374.043 510.599 374.043ZM511.879 369.883C512.572 369.883 513.186 369.763 513.719 369.523C514.279 369.257 514.759 368.91 515.159 368.483C515.559 368.03 515.866 367.523 516.079 366.963C516.319 366.377 516.479 365.75 516.559 365.083V365.043H512.439C511.612 365.043 510.932 365.15 510.399 365.363C509.892 365.55 509.519 365.83 509.279 366.203C509.039 366.577 508.919 367.003 508.919 367.483C508.919 368.017 509.039 368.457 509.279 368.803C509.519 369.15 509.866 369.417 510.319 369.603C510.772 369.79 511.292 369.883 511.879 369.883ZM539.636 373.563L531.036 362.523L538.756 353.403H545.116L535.156 364.803V360.523L546.356 373.563H539.636ZM526.436 373.563V344.763H531.836V373.563H526.436ZM548.881 373.563V353.403H554.281V373.563H548.881ZM551.601 350.643C550.641 350.643 549.841 350.363 549.201 349.803C548.588 349.217 548.281 348.483 548.281 347.603C548.281 346.723 548.588 346.003 549.201 345.443C549.841 344.857 550.641 344.563 551.601 344.563C552.588 344.563 553.388 344.857 554.001 345.443C554.641 346.003 554.961 346.723 554.961 347.603C554.961 348.483 554.641 349.217 554.001 349.803C553.388 350.363 552.588 350.643 551.601 350.643ZM558.938 373.563V344.763H564.338V373.563H558.938ZM577.536 373.563V345.563H582.936V356.643L593.056 345.563H599.696L589.416 356.643L600.016 373.563H593.416L585.536 360.843L582.936 363.643V373.563H577.536ZM610.71 374.043C608.684 374.043 606.884 373.617 605.31 372.763C603.764 371.883 602.55 370.67 601.67 369.123C600.817 367.55 600.39 365.737 600.39 363.683C600.39 361.577 600.817 359.723 601.67 358.123C602.55 356.497 603.764 355.23 605.31 354.323C606.857 353.39 608.657 352.923 610.71 352.923C612.71 352.923 614.457 353.363 615.95 354.243C617.444 355.123 618.604 356.31 619.43 357.803C620.257 359.297 620.67 360.99 620.67 362.883C620.67 363.15 620.67 363.457 620.67 363.803C620.67 364.123 620.644 364.457 620.59 364.803H604.23V361.523H615.23C615.15 360.217 614.684 359.19 613.83 358.443C613.004 357.697 611.964 357.323 610.71 357.323C609.804 357.323 608.964 357.537 608.19 357.963C607.417 358.363 606.804 358.99 606.35 359.843C605.924 360.697 605.71 361.777 605.71 363.083V364.243C605.71 365.337 605.91 366.297 606.31 367.123C606.737 367.923 607.324 368.55 608.07 369.003C608.817 369.43 609.684 369.643 610.67 369.643C611.657 369.643 612.47 369.43 613.11 369.003C613.777 368.577 614.27 368.03 614.59 367.363H620.11C619.737 368.617 619.11 369.75 618.23 370.763C617.35 371.777 616.27 372.577 614.99 373.163C613.71 373.75 612.284 374.043 610.71 374.043ZM633.099 373.563C631.686 373.563 630.446 373.35 629.379 372.923C628.339 372.47 627.526 371.737 626.939 370.723C626.353 369.683 626.059 368.27 626.059 366.483V357.923H622.619V353.403H626.059L626.659 347.923H631.459V353.403H636.779V357.923H631.459V366.563C631.459 367.47 631.659 368.097 632.059 368.443C632.459 368.79 633.139 368.963 634.099 368.963H636.739V373.563H633.099ZM648.044 374.043C646.417 374.043 645.017 373.71 643.844 373.043C642.697 372.35 641.817 371.35 641.204 370.043C640.591 368.71 640.284 367.07 640.284 365.123V353.403H645.684V364.563C645.684 366.19 646.017 367.417 646.684 368.243C647.377 369.07 648.431 369.483 649.844 369.483C650.751 369.483 651.551 369.283 652.244 368.883C652.937 368.457 653.484 367.857 653.884 367.083C654.311 366.283 654.524 365.31 654.524 364.163V353.403H659.884V373.563H655.164L654.724 370.283C654.137 371.43 653.271 372.35 652.124 373.043C650.977 373.71 649.617 374.043 648.044 374.043ZM671.172 374.043C669.492 374.043 668.106 373.777 667.012 373.243C665.919 372.683 665.106 371.95 664.572 371.043C664.066 370.11 663.812 369.083 663.812 367.963C663.812 366.737 664.119 365.657 664.732 364.723C665.372 363.79 666.319 363.057 667.572 362.523C668.852 361.99 670.452 361.723 672.372 361.723H677.372C677.372 360.737 677.239 359.923 676.972 359.283C676.706 358.617 676.292 358.123 675.732 357.803C675.172 357.483 674.426 357.323 673.492 357.323C672.479 357.323 671.612 357.55 670.892 358.003C670.199 358.43 669.772 359.097 669.612 360.003H664.372C664.506 358.563 664.972 357.323 665.772 356.283C666.599 355.217 667.679 354.39 669.012 353.803C670.372 353.217 671.879 352.923 673.532 352.923C675.426 352.923 677.066 353.243 678.452 353.883C679.839 354.523 680.906 355.443 681.652 356.643C682.399 357.843 682.772 359.323 682.772 361.083V373.563H678.212L677.612 370.483C677.319 371.017 676.972 371.497 676.572 371.923C676.172 372.35 675.706 372.723 675.172 373.043C674.639 373.363 674.039 373.603 673.372 373.763C672.706 373.95 671.972 374.043 671.172 374.043ZM672.452 369.883C673.146 369.883 673.759 369.763 674.292 369.523C674.852 369.257 675.332 368.91 675.732 368.483C676.132 368.03 676.439 367.523 676.652 366.963C676.892 366.377 677.052 365.75 677.132 365.083V365.043H673.012C672.186 365.043 671.506 365.15 670.972 365.363C670.466 365.55 670.092 365.83 669.852 366.203C669.612 366.577 669.492 367.003 669.492 367.483C669.492 368.017 669.612 368.457 669.852 368.803C670.092 369.15 670.439 369.417 670.892 369.603C671.346 369.79 671.866 369.883 672.452 369.883Z" fill="#BC4F07"/>
<line x1="463.6" y1="394.063" x2="993.534" y2="394.063" stroke="#B9B9B9" stroke-width="3"/>
<path d="M466 437.563V415.163H468.688V425.307L478.032 415.163H481.424L473.104 424.091L481.552 437.563H478.288L471.184 426.171L468.688 428.827V437.563H466ZM488.416 437.947C487.115 437.947 486.027 437.723 485.152 437.275C484.278 436.806 483.627 436.198 483.2 435.451C482.774 434.683 482.56 433.851 482.56 432.955C482.56 431.867 482.838 430.95 483.392 430.203C483.968 429.435 484.768 428.859 485.792 428.475C486.838 428.07 488.064 427.867 489.472 427.867H493.728C493.728 426.865 493.568 426.033 493.248 425.371C492.95 424.689 492.502 424.177 491.904 423.835C491.328 423.494 490.603 423.323 489.728 423.323C488.704 423.323 487.819 423.579 487.072 424.091C486.326 424.603 485.867 425.361 485.696 426.363H482.944C483.072 425.211 483.456 424.251 484.096 423.483C484.758 422.694 485.59 422.097 486.592 421.691C487.595 421.265 488.64 421.051 489.728 421.051C491.222 421.051 492.459 421.329 493.44 421.883C494.443 422.417 495.19 423.174 495.68 424.155C496.171 425.115 496.416 426.257 496.416 427.579V437.563H494.016L493.856 434.715C493.643 435.163 493.366 435.59 493.024 435.995C492.704 436.379 492.32 436.721 491.872 437.019C491.424 437.297 490.912 437.521 490.336 437.691C489.782 437.862 489.142 437.947 488.416 437.947ZM488.832 435.675C489.579 435.675 490.251 435.526 490.848 435.227C491.467 434.907 491.99 434.481 492.416 433.947C492.843 433.393 493.163 432.785 493.376 432.123C493.611 431.462 493.728 430.769 493.728 430.043V429.947H489.696C488.651 429.947 487.808 430.075 487.168 430.331C486.528 430.566 486.07 430.907 485.792 431.355C485.515 431.782 485.376 432.273 485.376 432.827C485.376 433.403 485.504 433.905 485.76 434.331C486.038 434.758 486.432 435.089 486.944 435.323C487.478 435.558 488.107 435.675 488.832 435.675ZM499.935 437.563V421.435H502.367L502.559 424.507C502.921 423.782 503.38 423.163 503.935 422.651C504.511 422.139 505.193 421.745 505.983 421.467C506.793 421.19 507.711 421.051 508.735 421.051V423.867H507.743C507.06 423.867 506.409 423.963 505.791 424.155C505.172 424.326 504.617 424.614 504.127 425.019C503.657 425.425 503.284 425.979 503.007 426.683C502.751 427.366 502.623 428.219 502.623 429.243V437.563H499.935ZM511.138 437.563V414.523H513.826V437.563H511.138ZM522.871 437.947C521.57 437.947 520.482 437.723 519.607 437.275C518.733 436.806 518.082 436.198 517.655 435.451C517.229 434.683 517.015 433.851 517.015 432.955C517.015 431.867 517.293 430.95 517.847 430.203C518.423 429.435 519.223 428.859 520.247 428.475C521.293 428.07 522.519 427.867 523.927 427.867H528.183C528.183 426.865 528.023 426.033 527.703 425.371C527.405 424.689 526.957 424.177 526.359 423.835C525.783 423.494 525.058 423.323 524.183 423.323C523.159 423.323 522.274 423.579 521.527 424.091C520.781 424.603 520.322 425.361 520.151 426.363H517.399C517.527 425.211 517.911 424.251 518.551 423.483C519.213 422.694 520.045 422.097 521.047 421.691C522.05 421.265 523.095 421.051 524.183 421.051C525.677 421.051 526.914 421.329 527.895 421.883C528.898 422.417 529.645 423.174 530.135 424.155C530.626 425.115 530.871 426.257 530.871 427.579V437.563H528.471L528.311 434.715C528.098 435.163 527.821 435.59 527.479 435.995C527.159 436.379 526.775 436.721 526.327 437.019C525.879 437.297 525.367 437.521 524.791 437.691C524.237 437.862 523.597 437.947 522.871 437.947ZM523.287 435.675C524.034 435.675 524.706 435.526 525.303 435.227C525.922 434.907 526.445 434.481 526.871 433.947C527.298 433.393 527.618 432.785 527.831 432.123C528.066 431.462 528.183 430.769 528.183 430.043V429.947H524.151C523.106 429.947 522.263 430.075 521.623 430.331C520.983 430.566 520.525 430.907 520.247 431.355C519.97 431.782 519.831 432.273 519.831 432.827C519.831 433.403 519.959 433.905 520.215 434.331C520.493 434.758 520.887 435.089 521.399 435.323C521.933 435.558 522.562 435.675 523.287 435.675ZM534.39 437.563V421.435H536.822L536.95 424.251C537.462 423.249 538.187 422.47 539.126 421.915C540.086 421.339 541.174 421.051 542.39 421.051C543.648 421.051 544.736 421.307 545.654 421.819C546.571 422.31 547.286 423.067 547.798 424.091C548.31 425.094 548.566 426.374 548.566 427.931V437.563H545.878V428.219C545.878 426.598 545.515 425.382 544.79 424.571C544.086 423.761 543.083 423.355 541.782 423.355C540.886 423.355 540.086 423.579 539.382 424.027C538.678 424.454 538.112 425.083 537.686 425.915C537.28 426.726 537.078 427.739 537.078 428.955V437.563H534.39Z" fill="black"/>
</g>
</g>
<path d="M728.567 487.126V564.563C728.567 570.086 724.089 574.563 718.567 574.563H368.5C362.977 574.563 358.5 579.04 358.5 584.563V662" stroke="#B9B9B9" stroke-width="4" stroke-linecap="round" stroke-linejoin="bevel"/>
<g filter="url(#filter4_d_266_152)">
<rect x="742.6" y="668" width="713" height="181" rx="10" fill="white"/>
<path d="M775.36 741.5V713.5H793.76V717.86H780.76V725.18H792.56V729.38H780.76V737.14H793.76V741.5H775.36ZM797.76 741.5V721.34H802.56L803.08 725.06C803.56 724.18 804.16 723.433 804.88 722.82C805.627 722.207 806.467 721.727 807.4 721.38C808.36 721.033 809.413 720.86 810.56 720.86V726.58H808.72C807.92 726.58 807.173 726.673 806.48 726.86C805.813 727.047 805.227 727.353 804.72 727.78C804.213 728.18 803.827 728.74 803.56 729.46C803.293 730.18 803.16 731.087 803.16 732.18V741.5H797.76ZM813.327 741.5V721.34H818.087L818.487 724.62C819.1 723.5 819.967 722.593 821.087 721.9C822.234 721.207 823.594 720.86 825.167 720.86C826.847 720.86 828.26 721.207 829.407 721.9C830.554 722.593 831.42 723.607 832.007 724.94C832.62 726.273 832.927 727.913 832.927 729.86V741.5H827.567V730.38C827.567 728.78 827.22 727.553 826.527 726.7C825.86 725.847 824.82 725.42 823.407 725.42C822.5 725.42 821.687 725.633 820.967 726.06C820.274 726.487 819.727 727.1 819.327 727.9C818.927 728.673 818.727 729.62 818.727 730.74V741.5H813.327ZM844.015 741.98C842.335 741.98 840.948 741.713 839.855 741.18C838.761 740.62 837.948 739.887 837.415 738.98C836.908 738.047 836.655 737.02 836.655 735.9C836.655 734.673 836.961 733.593 837.575 732.66C838.215 731.727 839.161 730.993 840.415 730.46C841.695 729.927 843.295 729.66 845.215 729.66H850.215C850.215 728.673 850.081 727.86 849.815 727.22C849.548 726.553 849.135 726.06 848.575 725.74C848.015 725.42 847.268 725.26 846.335 725.26C845.321 725.26 844.455 725.487 843.735 725.94C843.041 726.367 842.615 727.033 842.455 727.94H837.215C837.348 726.5 837.815 725.26 838.615 724.22C839.441 723.153 840.521 722.327 841.855 721.74C843.215 721.153 844.721 720.86 846.375 720.86C848.268 720.86 849.908 721.18 851.295 721.82C852.681 722.46 853.748 723.38 854.495 724.58C855.241 725.78 855.615 727.26 855.615 729.02V741.5H851.055L850.455 738.42C850.161 738.953 849.815 739.433 849.415 739.86C849.015 740.287 848.548 740.66 848.015 740.98C847.481 741.3 846.881 741.54 846.215 741.7C845.548 741.887 844.815 741.98 844.015 741.98ZM845.295 737.82C845.988 737.82 846.601 737.7 847.135 737.46C847.695 737.193 848.175 736.847 848.575 736.42C848.975 735.967 849.281 735.46 849.495 734.9C849.735 734.313 849.895 733.687 849.975 733.02V732.98H845.855C845.028 732.98 844.348 733.087 843.815 733.3C843.308 733.487 842.935 733.767 842.695 734.14C842.455 734.513 842.335 734.94 842.335 735.42C842.335 735.953 842.455 736.393 842.695 736.74C842.935 737.087 843.281 737.353 843.735 737.54C844.188 737.727 844.708 737.82 845.295 737.82Z" fill="#BC4F07"/>
<line x1="772.6" y1="762" x2="1425.6" y2="762" stroke="#B9B9B9" stroke-width="3"/>
<path d="M775 805.5V783.1H782.232C783.981 783.1 785.41 783.399 786.52 783.996C787.629 784.572 788.45 785.351 788.984 786.332C789.517 787.313 789.784 788.423 789.784 789.66C789.784 790.855 789.506 791.953 788.952 792.956C788.418 793.959 787.586 794.759 786.456 795.356C785.325 795.953 783.874 796.252 782.104 796.252H777.688V805.5H775ZM786.84 805.5L781.912 795.484H784.92L790.008 805.5H786.84ZM777.688 794.14H782.04C783.746 794.14 784.994 793.724 785.784 792.892C786.594 792.06 787 790.993 787 789.692C787 788.369 786.605 787.324 785.816 786.556C785.048 785.767 783.778 785.372 782.008 785.372H777.688V794.14ZM799.056 805.884C797.818 805.884 796.73 805.639 795.792 805.148C794.874 804.657 794.16 803.9 793.648 802.876C793.157 801.852 792.912 800.572 792.912 799.036V789.372H795.6V798.748C795.6 800.348 795.952 801.553 796.656 802.364C797.36 803.175 798.352 803.58 799.632 803.58C800.528 803.58 801.338 803.367 802.064 802.94C802.789 802.492 803.354 801.863 803.76 801.052C804.186 800.22 804.4 799.207 804.4 798.012V789.372H807.088V805.5H804.656L804.496 802.684C804.005 803.687 803.28 804.476 802.32 805.052C801.36 805.607 800.272 805.884 799.056 805.884ZM816.983 805.884C815.639 805.884 814.466 805.66 813.463 805.212C812.482 804.764 811.693 804.145 811.095 803.356C810.519 802.545 810.167 801.596 810.039 800.508H812.791C812.898 801.063 813.122 801.575 813.463 802.044C813.805 802.513 814.263 802.897 814.839 803.196C815.437 803.473 816.162 803.612 817.015 803.612C817.762 803.612 818.381 803.505 818.871 803.292C819.362 803.057 819.725 802.748 819.959 802.364C820.215 801.98 820.343 801.564 820.343 801.116C820.343 800.455 820.183 799.953 819.863 799.612C819.565 799.271 819.117 799.004 818.519 798.812C817.922 798.599 817.197 798.417 816.343 798.268C815.639 798.14 814.946 797.969 814.263 797.756C813.581 797.543 812.973 797.265 812.439 796.924C811.906 796.561 811.479 796.124 811.159 795.612C810.861 795.1 810.711 794.471 810.711 793.724C810.711 792.807 810.946 791.996 811.415 791.292C811.885 790.567 812.557 790.001 813.431 789.596C814.327 789.191 815.362 788.988 816.535 788.988C818.263 788.988 819.661 789.404 820.727 790.236C821.794 791.068 822.423 792.273 822.615 793.852H819.959C819.853 793.041 819.501 792.412 818.903 791.964C818.327 791.495 817.527 791.26 816.503 791.26C815.501 791.26 814.733 791.463 814.199 791.868C813.687 792.273 813.431 792.807 813.431 793.468C813.431 793.895 813.57 794.279 813.847 794.62C814.146 794.94 814.573 795.217 815.127 795.452C815.703 795.687 816.407 795.879 817.239 796.028C818.306 796.22 819.277 796.476 820.151 796.796C821.026 797.116 821.73 797.596 822.263 798.236C822.818 798.855 823.095 799.74 823.095 800.892C823.095 801.895 822.839 802.769 822.327 803.516C821.837 804.263 821.133 804.849 820.215 805.276C819.298 805.681 818.221 805.884 816.983 805.884ZM833.43 805.884C831.873 805.884 830.507 805.521 829.334 804.796C828.161 804.049 827.254 803.036 826.614 801.756C825.974 800.476 825.654 799.025 825.654 797.404C825.654 795.783 825.974 794.343 826.614 793.084C827.254 791.804 828.161 790.801 829.334 790.076C830.529 789.351 831.905 788.988 833.462 788.988C834.785 788.988 835.937 789.255 836.918 789.788C837.921 790.321 838.689 791.068 839.222 792.028V782.46H841.91V805.5H839.478L839.254 802.844C838.913 803.377 838.475 803.879 837.942 804.348C837.409 804.796 836.769 805.169 836.022 805.468C835.275 805.745 834.411 805.884 833.43 805.884ZM833.75 803.548C834.817 803.548 835.755 803.292 836.566 802.78C837.377 802.268 838.006 801.564 838.454 800.668C838.902 799.751 839.126 798.673 839.126 797.436C839.126 796.22 838.902 795.153 838.454 794.236C838.006 793.319 837.377 792.604 836.566 792.092C835.755 791.58 834.817 791.324 833.75 791.324C832.705 791.324 831.777 791.58 830.966 792.092C830.155 792.604 829.526 793.319 829.078 794.236C828.63 795.153 828.406 796.22 828.406 797.436C828.406 798.673 828.63 799.751 829.078 800.668C829.526 801.564 830.155 802.268 830.966 802.78C831.777 803.292 832.705 803.548 833.75 803.548ZM846.004 805.5V789.372H848.692V805.5H846.004ZM847.348 785.948C846.815 785.948 846.367 785.777 846.004 785.436C845.663 785.073 845.492 784.625 845.492 784.092C845.492 783.559 845.663 783.132 846.004 782.812C846.367 782.471 846.815 782.3 847.348 782.3C847.86 782.3 848.298 782.471 848.66 782.812C849.023 783.132 849.204 783.559 849.204 784.092C849.204 784.625 849.023 785.073 848.66 785.436C848.298 785.777 847.86 785.948 847.348 785.948Z" fill="black"/>
</g>
<path d="M728.566 487.126V564.563C728.566 570.086 733.044 574.563 738.566 574.563H1089.1C1094.62 574.563 1099.1 579.04 1099.1 584.563V662" stroke="#B9B9B9" stroke-width="4" stroke-linecap="round" stroke-linejoin="bevel"/>
<g filter="url(#filter5_d_266_152)">
<g clip-path="url(#clip1_266_152)">
<rect x="434.066" y="1" width="589.934" height="181.126" rx="10" fill="white"/>
<path d="M466.826 74.5635V46.5635H472.226V57.6435L482.346 46.5635H488.986L478.706 57.6435L489.306 74.5635H482.706L474.826 61.8435L472.226 64.6435V74.5635H466.826ZM500 75.0435C497.974 75.0435 496.174 74.6168 494.6 73.7635C493.054 72.8835 491.84 71.6701 490.96 70.1235C490.107 68.5501 489.68 66.7368 489.68 64.6835C489.68 62.5768 490.107 60.7235 490.96 59.1235C491.84 57.4968 493.054 56.2301 494.6 55.3235C496.147 54.3901 497.947 53.9235 500 53.9235C502 53.9235 503.747 54.3635 505.24 55.2435C506.734 56.1235 507.894 57.3101 508.72 58.8035C509.547 60.2968 509.96 61.9901 509.96 63.8835C509.96 64.1501 509.96 64.4568 509.96 64.8035C509.96 65.1235 509.934 65.4568 509.88 65.8035H493.52V62.5235H504.52C504.44 61.2168 503.974 60.1901 503.12 59.4435C502.294 58.6968 501.254 58.3235 500 58.3235C499.094 58.3235 498.254 58.5368 497.48 58.9635C496.707 59.3635 496.094 59.9901 495.64 60.8435C495.214 61.6968 495 62.7768 495 64.0835V65.2435C495 66.3368 495.2 67.2968 495.6 68.1235C496.027 68.9235 496.614 69.5501 497.36 70.0035C498.107 70.4301 498.974 70.6435 499.96 70.6435C500.947 70.6435 501.76 70.4301 502.4 70.0035C503.067 69.5768 503.56 69.0301 503.88 68.3635H509.4C509.027 69.6168 508.4 70.7501 507.52 71.7635C506.64 72.7768 505.56 73.5768 504.28 74.1635C503 74.7501 501.574 75.0435 500 75.0435ZM522.39 74.5635C520.976 74.5635 519.736 74.3501 518.67 73.9235C517.63 73.4701 516.816 72.7368 516.23 71.7235C515.643 70.6835 515.35 69.2701 515.35 67.4835V58.9235H511.91V54.4035H515.35L515.95 48.9235H520.75V54.4035H526.07V58.9235H520.75V67.5635C520.75 68.4701 520.95 69.0968 521.35 69.4435C521.75 69.7901 522.43 69.9635 523.39 69.9635H526.03V74.5635H522.39ZM537.334 75.0435C535.708 75.0435 534.308 74.7101 533.134 74.0435C531.988 73.3501 531.108 72.3501 530.494 71.0435C529.881 69.7101 529.574 68.0701 529.574 66.1235V54.4035H534.974V65.5635C534.974 67.1901 535.308 68.4168 535.974 69.2435C536.668 70.0701 537.721 70.4835 539.134 70.4835C540.041 70.4835 540.841 70.2835 541.534 69.8835C542.228 69.4568 542.774 68.8568 543.174 68.0835C543.601 67.2835 543.814 66.3101 543.814 65.1635V54.4035H549.174V74.5635H544.454L544.014 71.2835C543.428 72.4301 542.561 73.3501 541.414 74.0435C540.268 74.7101 538.908 75.0435 537.334 75.0435ZM560.463 75.0435C558.783 75.0435 557.396 74.7768 556.303 74.2435C555.209 73.6835 554.396 72.9501 553.863 72.0435C553.356 71.1101 553.103 70.0835 553.103 68.9635C553.103 67.7368 553.409 66.6568 554.023 65.7235C554.663 64.7901 555.609 64.0568 556.863 63.5235C558.143 62.9901 559.743 62.7235 561.663 62.7235H566.663C566.663 61.7368 566.529 60.9235 566.263 60.2835C565.996 59.6168 565.583 59.1235 565.023 58.8035C564.463 58.4835 563.716 58.3235 562.783 58.3235C561.769 58.3235 560.903 58.5501 560.183 59.0035C559.489 59.4301 559.063 60.0968 558.903 61.0035H553.663C553.796 59.5635 554.263 58.3235 555.063 57.2835C555.889 56.2168 556.969 55.3901 558.303 54.8035C559.663 54.2168 561.169 53.9235 562.823 53.9235C564.716 53.9235 566.356 54.2435 567.743 54.8835C569.129 55.5235 570.196 56.4435 570.943 57.6435C571.689 58.8435 572.063 60.3235 572.063 62.0835V74.5635H567.503L566.903 71.4835C566.609 72.0168 566.263 72.4968 565.863 72.9235C565.463 73.3501 564.996 73.7235 564.463 74.0435C563.929 74.3635 563.329 74.6035 562.663 74.7635C561.996 74.9501 561.263 75.0435 560.463 75.0435ZM561.743 70.8835C562.436 70.8835 563.049 70.7635 563.583 70.5235C564.143 70.2568 564.623 69.9101 565.023 69.4835C565.423 69.0301 565.729 68.5235 565.943 67.9635C566.183 67.3768 566.343 66.7501 566.423 66.0835V66.0435H562.303C561.476 66.0435 560.796 66.1501 560.263 66.3635C559.756 66.5501 559.383 66.8301 559.143 67.2035C558.903 67.5768 558.783 68.0035 558.783 68.4835C558.783 69.0168 558.903 69.4568 559.143 69.8035C559.383 70.1501 559.729 70.4168 560.183 70.6035C560.636 70.7901 561.156 70.8835 561.743 70.8835Z" fill="#BC4F07"/>
<line x1="464.066" y1="95.0635" x2="994" y2="95.0635" stroke="#B9B9B9" stroke-width="3"/>
<path d="M465.026 138.563L473.282 116.163H476.13L484.354 138.563H481.506L474.69 119.523L467.842 138.563H465.026ZM468.802 132.803L469.57 130.627H479.714L480.482 132.803H468.802ZM486.916 138.563V115.523H489.604V125.155C490.138 124.195 490.884 123.438 491.844 122.883C492.826 122.329 493.892 122.051 495.044 122.051C496.282 122.051 497.359 122.307 498.276 122.819C499.194 123.31 499.898 124.067 500.388 125.091C500.879 126.115 501.124 127.406 501.124 128.963V138.563H498.468V129.251C498.468 127.63 498.127 126.414 497.444 125.603C496.762 124.771 495.77 124.355 494.468 124.355C493.551 124.355 492.719 124.579 491.972 125.027C491.247 125.475 490.671 126.115 490.244 126.947C489.818 127.779 489.604 128.803 489.604 130.019V138.563H486.916ZM504.683 138.563V122.435H507.115L507.275 124.739C507.787 123.907 508.469 123.257 509.323 122.787C510.197 122.297 511.147 122.051 512.171 122.051C513.003 122.051 513.749 122.169 514.411 122.403C515.093 122.617 515.691 122.958 516.203 123.427C516.715 123.875 517.131 124.451 517.451 125.155C518.005 124.174 518.763 123.417 519.723 122.883C520.704 122.329 521.749 122.051 522.859 122.051C524.096 122.051 525.173 122.307 526.091 122.819C527.029 123.31 527.744 124.067 528.235 125.091C528.747 126.094 529.003 127.374 529.003 128.931V138.563H526.347V129.219C526.347 127.598 526.016 126.382 525.355 125.571C524.693 124.761 523.765 124.355 522.571 124.355C521.739 124.355 520.992 124.579 520.331 125.027C519.669 125.454 519.147 126.083 518.763 126.915C518.379 127.747 518.187 128.771 518.187 129.987V138.563H515.499V129.219C515.499 127.598 515.168 126.382 514.507 125.571C513.845 124.761 512.907 124.355 511.691 124.355C510.88 124.355 510.144 124.579 509.483 125.027C508.843 125.454 508.331 126.083 507.947 126.915C507.563 127.747 507.371 128.771 507.371 129.987V138.563H504.683ZM537.791 138.947C536.489 138.947 535.401 138.723 534.527 138.275C533.652 137.806 533.001 137.198 532.575 136.451C532.148 135.683 531.935 134.851 531.935 133.955C531.935 132.867 532.212 131.95 532.767 131.203C533.343 130.435 534.143 129.859 535.167 129.475C536.212 129.07 537.439 128.867 538.847 128.867H543.103C543.103 127.865 542.943 127.033 542.623 126.371C542.324 125.689 541.876 125.177 541.279 124.835C540.703 124.494 539.977 124.323 539.103 124.323C538.079 124.323 537.193 124.579 536.447 125.091C535.7 125.603 535.241 126.361 535.071 127.363H532.319C532.447 126.211 532.831 125.251 533.471 124.483C534.132 123.694 534.964 123.097 535.967 122.691C536.969 122.265 538.015 122.051 539.103 122.051C540.596 122.051 541.833 122.329 542.815 122.883C543.817 123.417 544.564 124.174 545.055 125.155C545.545 126.115 545.791 127.257 545.791 128.579V138.563H543.391L543.231 135.715C543.017 136.163 542.74 136.59 542.399 136.995C542.079 137.379 541.695 137.721 541.247 138.019C540.799 138.297 540.287 138.521 539.711 138.691C539.156 138.862 538.516 138.947 537.791 138.947ZM538.207 136.675C538.953 136.675 539.625 136.526 540.223 136.227C540.841 135.907 541.364 135.481 541.791 134.947C542.217 134.393 542.537 133.785 542.751 133.123C542.985 132.462 543.103 131.769 543.103 131.043V130.947H539.071C538.025 130.947 537.183 131.075 536.543 131.331C535.903 131.566 535.444 131.907 535.167 132.355C534.889 132.782 534.751 133.273 534.751 133.827C534.751 134.403 534.879 134.905 535.135 135.331C535.412 135.758 535.807 136.089 536.319 136.323C536.852 136.558 537.481 136.675 538.207 136.675ZM556.413 138.947C554.856 138.947 553.49 138.585 552.317 137.859C551.144 137.113 550.237 136.099 549.597 134.819C548.957 133.539 548.637 132.089 548.637 130.467C548.637 128.846 548.957 127.406 549.597 126.147C550.237 124.867 551.144 123.865 552.317 123.139C553.512 122.414 554.888 122.051 556.445 122.051C557.768 122.051 558.92 122.318 559.901 122.851C560.904 123.385 561.672 124.131 562.205 125.091V115.523H564.893V138.563H562.461L562.237 135.907C561.896 136.441 561.458 136.942 560.925 137.411C560.392 137.859 559.752 138.233 559.005 138.531C558.258 138.809 557.394 138.947 556.413 138.947ZM556.733 136.611C557.8 136.611 558.738 136.355 559.549 135.843C560.36 135.331 560.989 134.627 561.437 133.731C561.885 132.814 562.109 131.737 562.109 130.499C562.109 129.283 561.885 128.217 561.437 127.299C560.989 126.382 560.36 125.667 559.549 125.155C558.738 124.643 557.8 124.387 556.733 124.387C555.688 124.387 554.76 124.643 553.949 125.155C553.138 125.667 552.509 126.382 552.061 127.299C551.613 128.217 551.389 129.283 551.389 130.499C551.389 131.737 551.613 132.814 552.061 133.731C552.509 134.627 553.138 135.331 553.949 135.843C554.76 136.355 555.688 136.611 556.733 136.611ZM576.751 138.563V116.163H590.383V118.371H579.439V126.243H588.751V128.419H579.439V138.563H576.751ZM597.231 138.947C595.929 138.947 594.841 138.723 593.967 138.275C593.092 137.806 592.441 137.198 592.015 136.451C591.588 135.683 591.375 134.851 591.375 133.955C591.375 132.867 591.652 131.95 592.207 131.203C592.783 130.435 593.583 129.859 594.607 129.475C595.652 129.07 596.879 128.867 598.287 128.867H602.543C602.543 127.865 602.383 127.033 602.063 126.371C601.764 125.689 601.316 125.177 600.719 124.835C600.143 124.494 599.417 124.323 598.543 124.323C597.519 124.323 596.633 124.579 595.887 125.091C595.14 125.603 594.681 126.361 594.511 127.363H591.759C591.887 126.211 592.271 125.251 592.911 124.483C593.572 123.694 594.404 123.097 595.407 122.691C596.409 122.265 597.455 122.051 598.543 122.051C600.036 122.051 601.273 122.329 602.255 122.883C603.257 123.417 604.004 124.174 604.495 125.155C604.985 126.115 605.231 127.257 605.231 128.579V138.563H602.831L602.671 135.715C602.457 136.163 602.18 136.59 601.839 136.995C601.519 137.379 601.135 137.721 600.687 138.019C600.239 138.297 599.727 138.521 599.151 138.691C598.596 138.862 597.956 138.947 597.231 138.947ZM597.647 136.675C598.393 136.675 599.065 136.526 599.663 136.227C600.281 135.907 600.804 135.481 601.231 134.947C601.657 134.393 601.977 133.785 602.191 133.123C602.425 132.462 602.543 131.769 602.543 131.043V130.947H598.511C597.465 130.947 596.623 131.075 595.983 131.331C595.343 131.566 594.884 131.907 594.607 132.355C594.329 132.782 594.191 133.273 594.191 133.827C594.191 134.403 594.319 134.905 594.575 135.331C594.852 135.758 595.247 136.089 595.759 136.323C596.292 136.558 596.921 136.675 597.647 136.675ZM608.749 138.563V122.435H611.181L611.309 125.251C611.821 124.249 612.546 123.47 613.485 122.915C614.445 122.339 615.533 122.051 616.749 122.051C618.008 122.051 619.096 122.307 620.013 122.819C620.93 123.31 621.645 124.067 622.157 125.091C622.669 126.094 622.925 127.374 622.925 128.931V138.563H620.237V129.219C620.237 127.598 619.874 126.382 619.149 125.571C618.445 124.761 617.442 124.355 616.141 124.355C615.245 124.355 614.445 124.579 613.741 125.027C613.037 125.454 612.472 126.083 612.045 126.915C611.64 127.726 611.437 128.739 611.437 129.955V138.563H608.749ZM631.732 138.947C630.431 138.947 629.343 138.723 628.468 138.275C627.593 137.806 626.943 137.198 626.516 136.451C626.089 135.683 625.876 134.851 625.876 133.955C625.876 132.867 626.153 131.95 626.708 131.203C627.284 130.435 628.084 129.859 629.108 129.475C630.153 129.07 631.38 128.867 632.788 128.867H637.044C637.044 127.865 636.884 127.033 636.564 126.371C636.265 125.689 635.817 125.177 635.22 124.835C634.644 124.494 633.919 124.323 633.044 124.323C632.02 124.323 631.135 124.579 630.388 125.091C629.641 125.603 629.183 126.361 629.012 127.363H626.26C626.388 126.211 626.772 125.251 627.412 124.483C628.073 123.694 628.905 123.097 629.908 122.691C630.911 122.265 631.956 122.051 633.044 122.051C634.537 122.051 635.775 122.329 636.756 122.883C637.759 123.417 638.505 124.174 638.996 125.155C639.487 126.115 639.732 127.257 639.732 128.579V138.563H637.332L637.172 135.715C636.959 136.163 636.681 136.59 636.34 136.995C636.02 137.379 635.636 137.721 635.188 138.019C634.74 138.297 634.228 138.521 633.652 138.691C633.097 138.862 632.457 138.947 631.732 138.947ZM632.148 136.675C632.895 136.675 633.567 136.526 634.164 136.227C634.783 135.907 635.305 135.481 635.732 134.947C636.159 134.393 636.479 133.785 636.692 133.123C636.927 132.462 637.044 131.769 637.044 131.043V130.947H633.012C631.967 130.947 631.124 131.075 630.484 131.331C629.844 131.566 629.385 131.907 629.108 132.355C628.831 132.782 628.692 133.273 628.692 133.827C628.692 134.403 628.82 134.905 629.076 135.331C629.353 135.758 629.748 136.089 630.26 136.323C630.793 136.558 631.423 136.675 632.148 136.675ZM643.25 138.563V122.435H645.682L645.81 125.251C646.322 124.249 647.047 123.47 647.986 122.915C648.946 122.339 650.034 122.051 651.25 122.051C652.509 122.051 653.597 122.307 654.514 122.819C655.431 123.31 656.146 124.067 656.658 125.091C657.17 126.094 657.426 127.374 657.426 128.931V138.563H654.738V129.219C654.738 127.598 654.375 126.382 653.65 125.571C652.946 124.761 651.943 124.355 650.642 124.355C649.746 124.355 648.946 124.579 648.242 125.027C647.538 125.454 646.973 126.083 646.546 126.915C646.141 127.726 645.938 128.739 645.938 129.955V138.563H643.25ZM661.241 138.563V122.435H663.929V138.563H661.241ZM662.585 119.011C662.052 119.011 661.604 118.841 661.241 118.499C660.9 118.137 660.729 117.689 660.729 117.155C660.729 116.622 660.9 116.195 661.241 115.875C661.604 115.534 662.052 115.363 662.585 115.363C663.097 115.363 663.534 115.534 663.897 115.875C664.26 116.195 664.441 116.622 664.441 117.155C664.441 117.689 664.26 118.137 663.897 118.499C663.534 118.841 663.097 119.011 662.585 119.011Z" fill="black"/>
</g>
</g>
<path d="M728.566 188.126V294" stroke="#B9B9B9" stroke-width="4" stroke-linecap="round" stroke-linejoin="bevel"/>
<defs>
<filter id="filter0_d_266_152" x="20" y="754" width="677" height="185" filterUnits="userSpaceOnUse" color-interpolation-filters="sRGB">
<feFlood flood-opacity="0" result="BackgroundImageFix"/>
<feColorMatrix in="SourceAlpha" type="matrix" values="0 0 0 0 0 0 0 0 0 0 0 0 0 0 0 0 0 0 127 0" result="hardAlpha"/>
<feOffset dy="1"/>
<feGaussianBlur stdDeviation="1"/>
<feComposite in2="hardAlpha" operator="out"/>
<feColorMatrix type="matrix" values="0 0 0 0 0 0 0 0 0 0 0 0 0 0 0 0 0 0 0.1 0"/>
<feBlend mode="normal" in2="BackgroundImageFix" result="effect1_dropShadow_266_152"/>
<feBlend mode="normal" in="SourceGraphic" in2="effect1_dropShadow_266_152" result="shape"/>
</filter>
<filter id="filter1_d_266_152" x="20" y="955" width="677" height="185" filterUnits="userSpaceOnUse" color-interpolation-filters="sRGB">
<feFlood flood-opacity="0" result="BackgroundImageFix"/>
<feColorMatrix in="SourceAlpha" type="matrix" values="0 0 0 0 0 0 0 0 0 0 0 0 0 0 0 0 0 0 127 0" result="hardAlpha"/>
<feOffset dy="1"/>
<feGaussianBlur stdDeviation="1"/>
<feComposite in2="hardAlpha" operator="out"/>
<feColorMatrix type="matrix" values="0 0 0 0 0 0 0 0 0 0 0 0 0 0 0 0 0 0 0.1 0"/>
<feBlend mode="normal" in2="BackgroundImageFix" result="effect1_dropShadow_266_152"/>
<feBlend mode="normal" in="SourceGraphic" in2="effect1_dropShadow_266_152" result="shape"/>
</filter>
<filter id="filter2_d_266_152" x="20" y="1156" width="677" height="185" filterUnits="userSpaceOnUse" color-interpolation-filters="sRGB">
<feFlood flood-opacity="0" result="BackgroundImageFix"/>
<feColorMatrix in="SourceAlpha" type="matrix" values="0 0 0 0 0 0 0 0 0 0 0 0 0 0 0 0 0 0 127 0" result="hardAlpha"/>
<feOffset dy="1"/>
<feGaussianBlur stdDeviation="1"/>
<feComposite in2="hardAlpha" operator="out"/>
<feColorMatrix type="matrix" values="0 0 0 0 0 0 0 0 0 0 0 0 0 0 0 0 0 0 0.1 0"/>
<feBlend mode="normal" in2="BackgroundImageFix" result="effect1_dropShadow_266_152"/>
<feBlend mode="normal" in="SourceGraphic" in2="effect1_dropShadow_266_152" result="shape"/>
</filter>
<filter id="filter3_d_266_152" x="431.6" y="299" width="593.934" height="185.126" filterUnits="userSpaceOnUse" color-interpolation-filters="sRGB">
<feFlood flood-opacity="0" result="BackgroundImageFix"/>
<feColorMatrix in="SourceAlpha" type="matrix" values="0 0 0 0 0 0 0 0 0 0 0 0 0 0 0 0 0 0 127 0" result="hardAlpha"/>
<feOffset dy="1"/>
<feGaussianBlur stdDeviation="1"/>
<feComposite in2="hardAlpha" operator="out"/>
<feColorMatrix type="matrix" values="0 0 0 0 0 0 0 0 0 0 0 0 0 0 0 0 0 0 0.1 0"/>
<feBlend mode="normal" in2="BackgroundImageFix" result="effect1_dropShadow_266_152"/>
<feBlend mode="normal" in="SourceGraphic" in2="effect1_dropShadow_266_152" result="shape"/>
</filter>
<filter id="filter4_d_266_152" x="740.6" y="667" width="717" height="185" filterUnits="userSpaceOnUse" color-interpolation-filters="sRGB">
<feFlood flood-opacity="0" result="BackgroundImageFix"/>
<feColorMatrix in="SourceAlpha" type="matrix" values="0 0 0 0 0 0 0 0 0 0 0 0 0 0 0 0 0 0 127 0" result="hardAlpha"/>
<feOffset dy="1"/>
<feGaussianBlur stdDeviation="1"/>
<feComposite in2="hardAlpha" operator="out"/>
<feColorMatrix type="matrix" values="0 0 0 0 0 0 0 0 0 0 0 0 0 0 0 0 0 0 0.1 0"/>
<feBlend mode="normal" in2="BackgroundImageFix" result="effect1_dropShadow_266_152"/>
<feBlend mode="normal" in="SourceGraphic" in2="effect1_dropShadow_266_152" result="shape"/>
</filter>
<filter id="filter5_d_266_152" x="432.066" y="0" width="593.934" height="185.126" filterUnits="userSpaceOnUse" color-interpolation-filters="sRGB">
<feFlood flood-opacity="0" result="BackgroundImageFix"/>
<feColorMatrix in="SourceAlpha" type="matrix" values="0 0 0 0 0 0 0 0 0 0 0 0 0 0 0 0 0 0 127 0" result="hardAlpha"/>
<feOffset dy="1"/>
<feGaussianBlur stdDeviation="1"/>
<feComposite in2="hardAlpha" operator="out"/>
<feColorMatrix type="matrix" values="0 0 0 0 0 0 0 0 0 0 0 0 0 0 0 0 0 0 0.1 0"/>
<feBlend mode="normal" in2="BackgroundImageFix" result="effect1_dropShadow_266_152"/>
<feBlend mode="normal" in="SourceGraphic" in2="effect1_dropShadow_266_152" result="shape"/>
</filter>
<clipPath id="clip0_266_152">
<rect x="433.6" y="300" width="589.934" height="181.126" rx="10" fill="white"/>
</clipPath>
<clipPath id="clip1_266_152">
<rect x="434.066" y="1" width="589.934" height="181.126" rx="10" fill="white"/>
</clipPath>
</defs>
</svg>
